<?xml version="1.0" encoding="UTF-8" standalone="no"?>
<!DOCTYPE svg PUBLIC "-//W3C//DTD SVG 1.1//EN" "http://www.w3.org/Graphics/SVG/1.1/DTD/svg11.dtd">
<svg xmlns="http://www.w3.org/2000/svg" version="1.1" viewBox="0.00 0.00 982.00 547.00">
<g stroke-width="2.00" fill="none" stroke-linecap="butt">
<path stroke="#cb9fa4" vector-effect="non-scaling-stroke" d="
  M 218.89 58.46
  Q 201.41 58.74 183.97 60.08
  Q 172.00 61.01 164.01 61.38
  Q 130.62 62.95 97.29 65.73
  Q 94.88 65.93 93.98 67.20
  Q 92.73 68.96 93.80 71.49
  A 0.99 0.99 0.0 0 0 94.68 72.09
  Q 133.37 73.35 172.00 73.13
  C 192.13 73.01 209.70 74.90 232.31 76.02"
/>
<path stroke="#da9a9b" vector-effect="non-scaling-stroke" d="
  M 232.31 76.02
  Q 240.62 76.47 249.00 76.88
  Q 256.12 77.22 268.52 81.52
  C 285.53 87.41 296.69 106.16 300.55 122.89
  C 303.91 137.41 302.27 154.72 295.44 167.85
  C 291.46 175.50 288.30 180.51 280.25 182.74
  C 262.30 187.69 247.22 188.92 225.49 190.53
  C 218.65 191.03 210.82 189.78 204.63 191.64
  C 198.07 193.63 193.31 196.87 189.99 203.16
  C 162.72 254.77 136.22 306.80 108.02 357.91
  C 106.64 360.41 105.45 363.38 104.32 365.74
  A 0.56 0.56 0.0 0 0 105.28 366.31
  L 118.05 349.06
  A 0.50 0.50 0.0 0 1 118.92 349.51
  Q 117.99 352.40 116.30 355.41
  Q 112.29 362.52 108.54 369.43
  A 1.89 1.85 -37.9 0 0 108.36 370.77
  L 108.45 371.11
  A 0.47 0.47 0.0 0 0 109.28 371.28
  Q 114.23 364.55 119.55 357.89
  Q 125.24 350.77 129.80 344.60
  Q 136.51 335.50 146.51 322.50
  Q 206.84 244.05 224.15 221.74
  C 225.48 220.03 226.19 218.75 228.76 218.98
  Q 231.74 219.26 235.04 220.69
  Q 250.25 227.30 262.30 238.42
  C 271.47 246.89 277.39 259.20 280.36 270.99
  Q 284.66 288.10 287.80 308.35
  Q 290.19 323.73 291.02 328.08
  C 293.64 341.67 296.06 354.95 303.79 366.32
  C 308.42 373.14 317.05 377.31 324.74 379.49
  Q 329.42 380.82 336.87 380.90
  Q 372.03 381.26 400.63 380.94
  Q 405.55 380.89 405.51 376.29
  A 1.24 1.22 -23.8 0 1 405.86 375.41
  C 407.46 373.77 409.32 372.70 410.73 371.03
  Q 417.35 363.15 424.51 355.75
  Q 425.62 354.61 426.27 353.08
  A 0.87 0.87 0.0 0 0 426.14 352.18
  C 422.05 347.23 417.57 344.55 410.93 343.79
  C 391.85 341.63 381.29 335.06 373.01 317.17
  Q 368.42 307.25 366.14 297.04
  Q 361.76 277.44 358.47 263.93
  Q 355.40 251.29 352.38 244.94
  C 344.47 228.31 332.19 218.50 316.84 209.00
  A 0.99 0.99 0.0 0 1 316.88 207.29
  C 329.69 200.30 339.00 191.58 353.48 177.99
  C 360.92 171.01 368.45 162.54 372.64 152.95
  Q 384.70 125.35 373.40 97.76
  C 368.52 85.85 359.84 76.32 350.17 68.07
  C 336.48 56.39 322.63 56.49 304.25 56.18
  Q 257.56 55.39 218.89 58.46"
/>
<path stroke="#a53a40" vector-effect="non-scaling-stroke" d="
  M 232.31 76.02
  L 230.62 75.30
  Q 230.39 75.19 230.51 74.97
  Q 230.59 74.82 230.77 74.89
  Q 231.41 75.15 231.14 74.79
  Q 230.32 73.66 230.88 72.34
  A 0.80 0.79 27.6 0 0 230.57 71.37
  Q 228.76 70.21 229.94 68.59
  Q 230.31 68.09 229.97 67.57
  Q 228.56 65.43 229.27 62.71
  Q 229.38 62.29 229.65 61.96
  Q 229.93 61.63 229.96 61.21
  Q 230.00 60.70 229.50 60.27
  Q 229.34 60.14 229.47 59.98
  Q 229.58 59.84 229.92 59.69
  A 0.34 0.34 0.0 0 0 229.78 59.04
  L 213.12 59.11
  Q 213.12 59.11 213.12 58.94
  Q 213.12 58.91 213.12 58.88
  A 0.12 0.12 0.0 0 1 213.23 58.76
  L 218.89 58.46"
/>
<path stroke="#808080" vector-effect="non-scaling-stroke" d="
  M 469.45 366.31
  Q 480.07 345.90 486.19 323.23
  Q 493.29 296.94 499.20 270.38
  C 502.40 255.98 505.46 244.95 510.10 232.52
  Q 510.97 230.18 510.54 228.11
  A 0.82 0.82 0.0 0 0 509.53 227.49
  Q 493.32 231.74 476.66 233.62
  Q 473.97 233.92 474.31 236.61
  L 474.41 237.37
  Q 474.71 239.70 477.05 239.71
  C 484.18 239.74 483.92 243.18 482.61 248.77
  Q 473.96 285.65 464.11 322.22
  Q 459.50 339.32 453.73 354.24
  Q 452.12 358.40 449.41 362.37
  C 445.31 368.36 435.54 368.73 428.74 369.15
  A 0.99 0.98 12.5 0 0 427.93 369.66
  L 425.90 373.48
  Q 424.34 376.40 427.66 376.28
  Q 453.26 375.27 478.36 377.27
  Q 478.44 377.27 486.64 378.11
  Q 518.28 381.34 545.72 367.19
  Q 583.25 347.83 595.87 306.52
  C 610.86 257.44 583.02 212.95 531.75 206.33
  C 482.32 199.94 432.81 219.93 409.97 266.01
  Q 401.23 283.64 401.48 302.49
  Q 401.74 321.81 416.06 335.87
  C 421.58 341.30 430.18 343.06 433.99 335.28
  C 436.20 330.79 434.21 327.58 430.23 324.95
  C 426.66 322.59 422.38 320.11 419.63 317.16
  Q 409.52 306.37 411.84 290.49
  Q 414.33 273.42 423.41 259.46
  Q 438.42 236.39 463.41 224.76
  Q 473.06 220.26 476.99 219.03
  C 513.90 207.50 554.75 216.51 569.12 256.24
  C 579.47 284.90 573.23 319.21 553.54 342.27
  C 532.74 366.64 501.33 373.59 470.12 367.69
  A 0.96 0.96 0.0 0 1 469.45 366.31"
/>
<path stroke="#808080" vector-effect="non-scaling-stroke" d="
  M 850.36 320.91
  Q 850.47 318.95 851.28 317.78
  Q 865.17 297.55 877.81 276.54
  C 885.29 264.09 892.61 252.95 900.06 241.19
  C 901.06 239.61 902.36 236.42 904.37 234.68
  A 1.40 1.40 0.0 0 0 903.25 232.23
  Q 896.26 233.27 889.24 232.45
  A 0.99 0.98 19.6 0 0 888.30 232.89
  Q 879.91 246.05 859.68 279.17
  C 854.30 287.98 847.07 299.00 840.24 310.32
  Q 830.09 327.15 818.90 343.31
  C 812.08 353.15 804.60 361.36 796.30 369.56
  Q 790.75 375.03 783.42 378.12
  A 1.34 1.34 0.0 0 1 782.40 378.12
  C 771.13 373.60 786.71 348.94 790.75 342.18
  Q 802.69 322.18 814.60 302.48
  A 1.39 1.39 0.0 0 0 813.29 300.38
  Q 807.00 300.93 800.50 300.88
  C 796.59 300.86 794.99 306.50 794.08 309.61
  A 0.99 0.99 0.0 0 1 792.16 309.50
  L 790.74 301.49
  Q 790.65 300.96 790.23 300.63
  C 786.52 297.77 779.55 298.66 775.25 300.03
  C 753.96 306.84 734.86 319.94 722.21 338.50
  C 718.16 344.43 714.44 349.81 709.55 355.69
  Q 707.47 358.20 704.29 362.27
  Q 697.35 371.13 684.48 377.21
  Q 680.18 379.24 678.20 374.48
  C 677.29 372.28 678.58 366.86 679.86 364.16
  Q 689.80 343.24 701.72 323.40
  C 719.68 293.50 737.51 263.47 755.88 233.57
  A 1.22 1.22 0.0 0 0 754.70 231.72
  Q 747.53 232.57 740.48 231.23
  A 0.81 0.80 -70.2 0 0 739.64 231.63
  C 721.68 264.53 704.28 292.40 686.40 322.67
  Q 680.41 332.81 672.79 341.80
  C 671.90 342.86 671.41 344.05 670.55 344.97
  C 658.38 358.06 645.61 373.51 625.90 377.40
  Q 623.89 377.79 622.11 377.37
  C 613.30 375.26 610.48 370.54 612.17 361.57
  Q 614.33 350.17 621.18 340.51
  A 2.33 2.32 16.3 0 1 622.94 339.55
  C 626.76 339.35 631.02 337.74 634.03 337.10
  C 646.23 334.52 675.97 328.48 678.68 311.83
  C 679.64 305.94 675.14 300.31 669.54 299.04
  Q 666.14 298.27 660.49 299.63
  Q 633.29 306.18 613.67 325.69
  C 601.18 338.10 594.66 356.74 607.01 372.01
  Q 612.20 378.43 620.72 379.82
  C 630.73 381.44 645.12 372.25 652.28 365.77
  Q 662.21 356.80 671.25 346.74
  A 0.37 0.37 0.0 0 1 671.88 346.88
  C 672.07 347.50 672.13 348.39 671.86 349.05
  C 668.58 357.35 666.82 364.42 670.88 372.67
  C 673.81 378.62 681.21 381.93 687.27 378.53
  Q 690.93 376.48 697.68 370.80
  C 705.03 364.62 711.12 356.63 717.11 349.12
  A 0.87 0.87 0.0 0 1 718.65 349.77
  C 717.17 361.57 718.60 371.41 729.22 378.22
  C 732.36 380.24 736.17 380.94 739.79 379.13
  C 743.82 377.11 747.63 375.15 750.88 371.92
  Q 760.73 362.11 768.42 350.03
  A 0.73 0.73 0.0 0 1 769.75 350.54
  Q 769.31 353.25 768.55 356.39
  Q 765.21 370.14 775.27 377.66
  Q 778.55 380.12 782.00 379.95
  Q 785.79 379.77 789.13 377.43
  Q 806.11 365.52 816.78 348.61
  A 0.76 0.76 0.0 0 1 818.17 349.17
  C 816.85 355.45 815.75 362.26 817.87 368.15
  C 820.63 375.80 828.44 381.74 837.11 379.66
  C 860.70 373.98 887.03 354.50 894.76 330.82
  C 897.60 322.14 896.68 314.04 891.87 306.57
  Q 888.70 301.66 884.03 299.91
  C 870.00 294.66 858.36 312.59 850.74 321.07
  Q 850.32 321.54 850.36 320.91"
/>
<path stroke="#be8080" vector-effect="non-scaling-stroke" d="
  M 287.00 447.27
  L 287.10 440.70
  A 0.87 0.87 0.0 0 0 285.90 439.88
  L 274.33 444.64
  Q 273.82 444.85 273.82 445.41
  L 273.83 445.68
  A 0.24 0.24 0.0 0 0 274.14 445.91
  C 276.87 445.13 279.74 444.71 279.92 448.64
  Q 280.19 454.58 280.21 471.25
  Q 280.21 475.61 279.30 478.38
  A 1.29 1.29 0.0 0 1 278.60 479.15
  Q 274.13 481.11 269.49 479.43
  A 1.56 1.52 -5.6 0 1 268.71 478.81
  Q 267.44 476.83 267.42 475.26
  Q 267.30 463.13 267.20 451.01
  Q 267.17 446.98 264.80 443.84
  C 258.50 435.46 249.55 442.32 244.72 447.70
  A 0.29 0.29 0.0 0 1 244.21 447.50
  L 244.22 421.00
  Q 244.22 419.36 242.69 419.97
  Q 236.78 422.32 231.12 424.84
  Q 230.91 424.93 230.83 425.08
  Q 230.76 425.21 230.75 425.33
  Q 230.70 425.76 231.13 425.73
  L 235.07 425.46
  A 1.51 1.50 -6.7 0 1 236.67 426.72
  Q 237.17 429.92 237.20 432.25
  Q 237.43 453.12 237.20 474.00
  Q 237.13 480.11 231.40 480.08
  Q 231.19 480.08 231.19 480.29
  L 231.19 480.70
  Q 231.18 481.05 231.54 481.05
  L 250.27 480.98
  Q 250.63 480.98 250.65 480.63
  L 250.67 480.36
  A 0.25 0.24 -1.0 0 0 250.40 480.10
  Q 244.29 480.74 244.25 475.51
  Q 244.15 463.51 244.20 451.50
  Q 244.20 451.01 244.47 450.62
  C 247.09 446.86 252.96 443.22 257.43 445.83
  Q 260.19 447.45 260.39 451.26
  Q 260.74 457.97 260.57 474.26
  Q 260.50 480.38 254.75 480.09
  A 0.46 0.46 0.0 0 0 254.26 480.52
  L 254.25 480.79
  Q 254.23 481.03 254.47 481.03
  L 293.29 480.99
  A 0.41 0.40 -15.9 0 0 293.64 480.37
  L 293.47 480.10
  Q 293.39 479.98 293.25 480.00
  Q 287.16 480.65 287.11 474.67
  Q 286.97 458.46 286.99 451.27
  A 1.40 1.39 -24.9 0 1 287.32 450.37
  C 290.13 447.07 296.14 443.17 300.43 445.73
  C 303.41 447.50 303.60 451.74 303.59 455.00
  Q 303.57 465.12 303.58 475.26
  Q 303.59 480.67 297.67 480.01
  Q 297.46 479.98 297.36 480.17
  L 297.15 480.56
  A 0.32 0.32 0.0 0 0 297.44 481.03
  L 316.36 480.98
  A 0.27 0.27 0.0 0 0 316.63 480.70
  L 316.61 480.43
  Q 316.59 480.10 316.25 480.11
  Q 310.47 480.44 310.50 475.28
  Q 310.58 464.23 310.35 453.19
  C 310.02 436.52 296.39 437.18 287.74 447.54
  Q 286.98 448.45 287.00 447.27"
/>
<path stroke="#da9a9b" vector-effect="non-scaling-stroke" d="
  M 369.44 436.58
  L 369.33 448.36"
/>
<path stroke="#be8080" vector-effect="non-scaling-stroke" d="
  M 369.33 448.36
  Q 369.30 459.59 369.23 470.96
  C 369.19 475.98 369.71 479.96 363.81 480.19
  Q 363.41 480.20 363.41 480.60
  L 363.40 480.88
  Q 363.40 481.04 363.56 481.04
  L 382.31 480.98
  A 0.33 0.33 0.0 0 0 382.64 480.67
  L 382.65 480.38
  Q 382.66 480.24 382.52 480.22
  C 379.17 479.78 376.21 479.53 376.20 475.25
  Q 376.12 447.76 376.19 420.72
  A 0.92 0.92 0.0 0 0 374.92 419.87
  L 363.23 424.72
  A 0.49 0.49 0.0 0 0 363.44 425.66
  L 367.29 425.46
  Q 367.84 425.43 368.15 425.89
  C 369.67 428.18 369.44 435.36 369.44 436.58"
/>
<path stroke="#991b1c" vector-effect="non-scaling-stroke" d="
  M 369.33 448.36
  Q 370.09 442.53 369.44 436.58"
/>
<path stroke="#be8080" vector-effect="non-scaling-stroke" d="
  M 484.8319 429.9785
  A 4.99 4.27 88.6 0 0 488.9787 424.8857
  A 4.99 4.27 88.6 0 0 484.5881 420.0015
  A 4.99 4.27 88.6 0 0 480.4413 425.0943
  A 4.99 4.27 88.6 0 0 484.8319 429.9785"
/>
<path stroke="#be8080" vector-effect="non-scaling-stroke" d="
  M 858.02 443.57
  Q 853.47 439.42 847.97 440.04
  C 831.25 441.94 825.03 468.79 838.05 478.74
  C 844.66 483.80 852.43 482.90 857.74 476.37
  A 0.54 0.54 0.0 0 1 858.70 476.73
  L 858.55 481.16
  A 1.02 1.02 0.0 0 0 859.97 482.13
  L 871.81 477.08
  Q 872.13 476.94 872.04 476.60
  L 871.97 476.36
  Q 871.94 476.25 871.83 476.26
  L 868.32 476.59
  A 2.55 2.55 0.0 0 1 865.53 474.06
  L 865.48 420.75
  A 0.92 0.91 -11.2 0 0 864.21 419.91
  L 852.33 424.84
  A 0.46 0.46 0.0 0 0 852.54 425.72
  L 856.43 425.41
  A 1.02 1.01 71.4 0 1 857.37 425.88
  C 859.54 429.29 858.67 439.65 858.52 443.36
  Q 858.49 444.00 858.02 443.57"
/>
<path stroke="#be8080" vector-effect="non-scaling-stroke" d="
  M 129.35 426.06
  C 136.60 425.75 147.28 424.39 147.73 435.11
  Q 147.76 435.83 148.47 435.94
  L 148.80 435.99
  A 0.50 0.49 2.4 0 0 149.37 435.47
  L 148.75 423.49
  Q 148.73 423.00 148.24 423.00
  L 101.94 423.00
  Q 101.38 423.00 101.34 423.56
  L 100.65 435.49
  Q 100.62 436.12 101.25 436.07
  L 101.53 436.05
  Q 102.27 435.99 102.31 435.24
  C 102.81 424.60 112.86 425.50 120.30 426.13
  Q 120.82 426.17 120.82 426.70
  Q 120.78 449.30 120.82 471.96
  C 120.83 477.56 119.31 480.93 113.04 479.92
  A 0.40 0.40 0.0 0 0 112.58 480.31
  L 112.58 480.70
  Q 112.57 481.08 112.95 481.08
  L 136.99 480.97
  A 0.43 0.43 0.0 0 0 137.07 480.11
  C 134.98 479.69 132.94 480.35 131.01 478.99
  C 128.87 477.48 128.77 473.15 128.76 470.75
  Q 128.72 448.67 128.84 426.59
  Q 128.84 426.08 129.35 426.06"
/>
<path stroke="#be8080" vector-effect="non-scaling-stroke" d="
  M 608.15 453.72
  Q 614.23 455.31 620.49 454.84
  C 629.93 454.13 636.98 446.83 635.70 437.08
  C 634.52 428.10 625.77 423.33 617.22 423.18
  Q 600.91 422.89 591.81 423.06
  Q 591.55 423.06 591.57 423.32
  L 591.59 423.59
  Q 591.62 424.00 592.03 423.97
  C 595.55 423.68 599.73 424.59 599.76 429.01
  Q 599.87 442.11 599.79 473.01
  Q 599.77 480.87 592.06 479.98
  A 0.41 0.41 0.0 0 0 591.60 480.35
  L 591.58 480.60
  A 0.42 0.41 -86.9 0 0 591.99 481.06
  L 615.76 480.99
  Q 616.12 480.99 616.14 480.63
  L 616.15 480.37
  Q 616.16 480.19 615.98 480.17
  C 611.93 479.70 608.01 480.17 607.87 474.50
  Q 607.63 464.30 607.67 454.08
  Q 607.67 453.59 608.15 453.72"
/>
<path stroke="#be8080" vector-effect="non-scaling-stroke" d="
  M 769.26 432.93
  C 769.30 425.31 770.81 424.15 778.66 423.80
  Q 779.09 423.78 778.93 423.39
  L 778.82 423.12
  Q 778.77 423.01 778.65 423.01
  L 753.20 422.97
  Q 752.61 422.97 752.84 423.51
  L 752.99 423.87
  A 0.29 0.28 -13.9 0 0 753.28 424.04
  C 762.04 423.16 761.15 428.89 761.21 435.76
  Q 761.38 454.92 761.13 474.07
  C 761.05 480.15 757.38 479.45 753.17 480.08
  A 0.49 0.49 0.0 0 0 753.24 481.05
  L 797.23 480.98
  A 0.72 0.71 9.0 0 0 797.91 480.49
  L 802.64 465.80
  A 0.40 0.40 0.0 0 0 802.35 465.29
  L 802.04 465.22
  A 0.79 0.78 -74.5 0 0 801.11 465.75
  C 796.58 479.87 786.74 478.21 774.70 477.98
  C 771.14 477.91 769.31 477.05 769.28 473.25
  Q 769.15 453.09 769.26 432.93"
/>
<path stroke="#be8080" vector-effect="non-scaling-stroke" d="
  M 696.54 444.02
  L 704.25 444.00
  Q 705.25 444.00 705.26 443.00
  L 705.28 441.77
  Q 705.29 441.00 704.52 441.00
  L 696.48 440.97
  A 0.49 0.48 90.0 0 1 696.00 440.48
  L 696.16 428.90
  A 0.88 0.87 21.3 0 0 695.86 428.22
  Q 695.13 427.59 694.82 428.51
  Q 691.65 437.79 683.12 442.65
  A 0.73 0.73 0.0 0 0 683.47 444.01
  L 688.49 444.05
  Q 689.16 444.05 689.14 444.72
  Q 688.71 459.12 689.30 473.52
  C 689.80 485.64 702.40 483.34 706.17 474.83
  Q 706.39 474.34 705.92 474.08
  L 705.70 473.96
  A 0.58 0.57 -59.5 0 0 704.93 474.16
  Q 702.82 477.54 699.33 476.94
  C 696.32 476.41 696.06 473.81 696.04 471.25
  Q 695.94 457.87 696.07 444.48
  Q 696.08 444.02 696.54 444.02"
/>
<path stroke="#be8080" vector-effect="non-scaling-stroke" d="
  M 818.74 444.01
  L 826.25 444.00
  Q 827.25 444.00 827.25 443.00
  L 827.26 441.77
  Q 827.27 441.02 826.52 441.01
  L 818.63 440.98
  Q 818.03 440.97 818.03 440.38
  L 818.10 428.59
  A 0.71 0.70 54.3 0 0 816.73 428.36
  Q 813.65 437.90 804.96 442.77
  A 0.65 0.64 -59.1 0 0 805.26 443.98
  L 810.46 444.05
  Q 811.04 444.06 811.04 444.64
  Q 810.97 457.19 811.17 469.75
  C 811.25 474.96 811.46 480.53 816.68 481.74
  C 821.68 482.90 826.31 479.14 828.25 474.69
  A 0.46 0.46 0.0 0 0 828.04 474.09
  L 827.75 473.93
  A 0.46 0.46 0.0 0 0 827.15 474.08
  Q 824.62 477.97 820.09 476.66
  A 1.51 1.49 -6.5 0 1 819.20 475.96
  Q 818.11 474.05 818.08 471.50
  Q 817.92 458.08 818.07 444.66
  Q 818.08 444.01 818.74 444.01"
/>
<path stroke="#be8080" vector-effect="non-scaling-stroke" d="
  M 160.24 457.52
  A 0.52 0.52 0.0 0 1 160.76 457.01
  L 186.75 457.00
  Q 187.21 457.00 187.23 456.54
  C 188.06 436.38 161.29 434.72 155.82 451.83
  Q 153.90 457.81 154.56 464.75
  C 156.55 486.04 184.06 488.50 187.36 466.72
  A 0.46 0.45 16.1 0 0 187.09 466.24
  L 186.82 466.14
  A 0.54 0.53 19.7 0 0 186.10 466.48
  Q 183.22 475.90 174.02 475.05
  C 164.62 474.17 160.10 466.06 160.24 457.52"
/>
<path stroke="#be8080" vector-effect="non-scaling-stroke" d="
  M 200.87 459.38
  C 200.21 453.29 202.59 443.64 210.03 443.02
  Q 216.66 442.47 217.55 448.12
  Q 217.95 450.61 218.73 451.50
  C 220.49 453.53 224.37 453.65 225.57 450.86
  C 226.73 448.16 224.53 445.00 222.37 443.38
  C 214.61 437.52 203.82 439.70 198.20 447.39
  C 190.39 458.07 193.46 479.55 208.86 481.94
  C 218.28 483.40 225.95 474.34 226.82 465.70
  A 0.49 0.48 -28.3 0 0 225.91 465.43
  C 223.04 470.80 221.65 474.76 214.48 474.93
  C 205.24 475.14 201.73 467.23 200.87 459.38"
/>
<path stroke="#be8080" vector-effect="non-scaling-stroke" d="
  M 337.1986 482.0121
  A 21.09 18.83 94.6 0 0 357.6593 462.5001
  A 21.09 18.83 94.6 0 0 340.5814 439.9679
  A 21.09 18.83 94.6 0 0 320.1207 459.4799
  A 21.09 18.83 94.6 0 0 337.1986 482.0121"
/>
<path stroke="#be8080" vector-effect="non-scaling-stroke" d="
  M 405.1978 482.0220
  A 21.10 18.81 94.6 0 0 425.6394 462.4985
  A 21.10 18.81 94.6 0 0 408.5822 439.9580
  A 21.10 18.81 94.6 0 0 388.1406 459.4815
  A 21.10 18.81 94.6 0 0 405.1978 482.0220"
/>
<path stroke="#be8080" vector-effect="non-scaling-stroke" d="
  M 464.25 446.01
  L 470.51 446.00
  Q 471.77 445.99 471.72 444.74
  L 471.70 444.30
  Q 471.64 442.93 470.27 442.97
  C 466.40 443.05 461.96 443.63 458.46 441.89
  Q 452.25 438.80 445.97 440.59
  C 433.69 444.08 430.17 459.35 441.92 466.21
  Q 442.51 466.56 441.96 466.96
  C 437.60 470.22 431.30 476.95 439.20 480.29
  A 0.46 0.46 0.0 0 1 439.33 481.05
  Q 437.51 482.73 435.95 484.59
  C 432.45 488.75 429.02 492.63 435.29 496.41
  C 445.32 502.47 459.19 500.97 467.18 492.23
  C 472.25 486.68 470.98 478.85 463.63 476.52
  Q 460.15 475.42 457.99 475.50
  Q 450.23 475.76 442.73 474.70
  A 2.01 2.01 0.0 0 1 441.05 472.25
  Q 441.74 469.33 443.98 467.37
  Q 444.37 467.03 444.87 467.17
  Q 454.78 469.93 461.42 464.02
  C 466.64 459.36 467.27 452.53 463.93 446.55
  Q 463.63 446.01 464.25 446.01"
/>
<path stroke="#be8080" vector-effect="non-scaling-stroke" d="
  M 480.35 446.11
  Q 481.08 448.19 481.13 450.45
  Q 481.35 460.67 481.23 470.88
  C 481.17 476.10 481.75 480.22 475.44 480.12
  Q 475.25 480.12 475.25 480.30
  L 475.24 480.55
  Q 475.23 481.05 475.74 481.05
  L 493.78 480.99
  Q 494.03 480.99 494.08 480.74
  L 494.13 480.47
  A 0.28 0.27 4.9 0 0 493.85 480.14
  Q 488.28 480.32 488.24 475.52
  Q 488.09 457.94 488.24 440.78
  A 0.92 0.92 0.0 0 0 486.97 439.92
  L 475.06 444.76
  A 0.52 0.51 71.2 0 0 474.76 445.38
  L 474.85 445.67
  Q 474.90 445.84 475.07 445.83
  L 479.40 445.48
  A 0.94 0.93 -11.3 0 1 480.35 446.11"
/>
<path stroke="#be8080" vector-effect="non-scaling-stroke" d="
  M 505.78 457.01
  L 531.77 457.00
  Q 532.21 457.00 532.23 456.56
  C 532.87 442.67 518.64 435.37 507.39 443.24
  C 494.15 452.50 497.03 481.25 516.15 482.07
  C 524.70 482.44 531.33 474.71 532.33 466.81
  A 0.61 0.61 0.0 0 0 531.16 466.52
  Q 528.00 475.11 520.24 475.09
  C 510.54 475.05 504.99 466.78 505.25 457.52
  Q 505.27 457.01 505.78 457.01"
/>
<path stroke="#be8080" vector-effect="non-scaling-stroke" d="
  M 562.09 441.47
  A 1.53 1.52 26.3 0 1 560.38 442.04
  C 557.25 441.04 553.84 439.71 550.73 440.08
  C 545.87 440.64 542.08 443.60 540.83 448.47
  C 537.63 460.95 552.26 462.87 558.72 468.27
  C 562.53 471.44 560.82 478.67 555.52 478.97
  Q 544.76 479.57 541.84 469.56
  A 0.66 0.66 0.0 0 0 540.55 469.74
  L 540.61 481.65
  A 0.47 0.47 0.0 0 0 541.47 481.90
  L 542.57 480.16
  A 0.65 0.64 23.2 0 1 543.28 479.88
  C 550.13 481.60 555.62 483.76 561.96 479.35
  C 567.52 475.48 568.68 467.94 564.04 462.88
  C 559.73 458.18 552.34 457.30 547.54 453.14
  C 543.46 449.60 545.24 444.01 550.48 443.16
  C 557.88 441.96 560.89 446.46 562.96 452.67
  A 0.61 0.61 0.0 0 0 564.14 452.47
  L 564.05 440.41
  A 0.54 0.54 0.0 0 0 563.07 440.10
  L 562.09 441.47"
/>
<path stroke="#be8080" vector-effect="non-scaling-stroke" d="
  M 663.01 469.74
  A 0.39 0.39 0.0 0 1 662.30 469.75
  Q 657.69 459.17 653.33 448.53
  C 651.79 444.76 651.84 441.71 656.94 441.79
  Q 657.17 441.79 657.14 441.57
  L 657.08 441.17
  Q 657.06 441.01 656.90 441.01
  L 639.24 440.97
  Q 638.70 440.97 638.66 441.51
  L 638.64 441.81
  A 0.28 0.28 0.0 0 0 638.89 442.11
  Q 643.04 442.55 644.20 445.32
  Q 651.69 463.17 659.16 481.04
  Q 659.68 482.27 660.94 482.01
  A 0.87 0.86 -83.8 0 0 661.56 481.50
  Q 669.04 463.44 676.39 445.44
  C 677.29 443.25 678.58 442.18 680.81 441.82
  A 0.42 0.42 0.0 0 0 680.75 440.99
  L 668.76 440.98
  Q 668.33 440.98 668.30 441.41
  L 668.29 441.68
  Q 668.28 441.87 668.46 441.89
  L 671.24 442.20
  A 2.09 2.09 0.0 0 1 672.94 445.06
  L 663.01 469.74"
/>
<path stroke="#be8080" vector-effect="non-scaling-stroke" d="
  M 718.0047 481.9699
  A 4.97 4.66 89.6 0 0 722.6299 476.9675
  A 4.97 4.66 89.6 0 0 717.9353 472.0301
  A 4.97 4.66 89.6 0 0 713.3101 477.0325
  A 4.97 4.66 89.6 0 0 718.0047 481.9699"
/>
<path stroke="#be8080" vector-effect="non-scaling-stroke" d="
  M 882.8142 481.9576
  A 4.96 4.64 91.8 0 0 887.6077 477.1457
  A 4.96 4.64 91.8 0 0 883.1258 472.0424
  A 4.96 4.64 91.8 0 0 878.3323 476.8543
  A 4.96 4.64 91.8 0 0 882.8142 481.9576"
/>
<path stroke="#808080" vector-effect="non-scaling-stroke" d="
  M 629.51 336.18
  C 643.35 331.49 658.64 324.99 668.16 312.95
  C 670.41 310.11 672.21 305.77 670.32 302.41
  C 667.32 297.06 656.66 303.34 652.89 306.16
  Q 636.07 318.75 623.90 336.12
  Q 622.87 337.58 624.65 337.84
  C 625.98 338.03 628.26 336.60 629.51 336.18"
/>
<path stroke="#808080" vector-effect="non-scaling-stroke" d="
  M 784.83 323.30
  C 786.94 319.69 789.72 314.21 789.77 309.67
  Q 789.82 305.74 788.90 303.48
  C 786.19 296.87 774.07 303.89 770.70 306.49
  Q 746.95 324.80 733.13 351.25
  C 730.32 356.63 728.57 363.39 728.53 368.99
  C 728.50 373.66 733.19 380.01 738.50 377.22
  C 750.21 371.06 755.82 363.67 765.39 351.57
  Q 776.51 337.51 784.83 323.30"
/>
<path stroke="#808080" vector-effect="non-scaling-stroke" d="
  M 832.74 349.85
  C 829.03 355.79 817.87 373.80 828.99 377.59
  C 835.87 379.93 848.30 369.38 853.31 364.67
  C 864.18 354.45 873.37 341.72 880.57 328.69
  Q 882.79 324.67 884.01 320.60
  C 886.24 313.17 888.92 302.52 878.03 300.84
  A 1.78 1.67 35.9 0 0 877.10 300.96
  Q 869.56 304.28 867.92 305.69
  Q 864.73 308.46 855.88 318.16
  Q 850.86 323.66 846.06 330.54
  C 841.57 336.97 836.64 343.61 832.74 349.85"
/>
<path stroke="#be8080" vector-effect="non-scaling-stroke" d="
  M 840.41 449.68
  Q 837.04 458.13 839.73 467.26
  C 842.10 475.32 851.84 481.58 858.30 472.94
  Q 858.60 472.54 858.60 472.05
  Q 858.62 463.19 858.51 454.34
  C 858.46 450.36 857.66 447.30 854.71 444.94
  C 849.42 440.71 842.76 443.81 840.41 449.68"
/>
<path stroke="#be8080" vector-effect="non-scaling-stroke" d="
  M 607.53 428.30
  L 607.71 449.88
  A 2.19 2.19 0.0 0 0 609.92 452.05
  L 614.78 452.01
  A 12.40 11.75 89.5 0 0 626.42 439.51
  L 626.41 438.35
  A 12.40 11.75 89.5 0 0 614.56 426.05
  L 609.70 426.09
  A 2.19 2.19 0.0 0 0 607.53 428.30"
/>
<path stroke="#be8080" vector-effect="non-scaling-stroke" d="
  M 161.02 454.13
  L 178.34 453.95
  A 0.54 0.54 0.0 0 0 178.87 453.40
  L 178.87 453.27
  A 10.35 9.07 89.4 0 0 169.69 443.02
  L 169.43 443.02
  A 10.35 9.07 89.4 0 0 160.47 453.47
  L 160.47 453.60
  A 0.54 0.54 0.0 0 0 161.02 454.13"
/>
<path stroke="#be8080" vector-effect="non-scaling-stroke" d="
  M 328.32 452.50
  Q 326.01 463.71 332.07 474.01
  C 336.68 481.84 347.16 480.29 349.32 471.50
  C 350.96 464.79 350.46 453.03 345.49 446.90
  C 342.14 442.76 336.00 441.39 331.98 445.11
  Q 329.34 447.55 328.32 452.50"
/>
<path stroke="#be8080" vector-effect="non-scaling-stroke" d="
  M 399.59 445.45
  C 393.01 452.20 395.60 466.72 399.78 473.98
  C 404.18 481.62 415.40 480.41 417.33 471.50
  C 418.99 463.87 418.60 446.89 408.80 443.58
  Q 403.25 441.70 399.59 445.45"
/>
<path stroke="#be8080" vector-effect="non-scaling-stroke" d="
  M 451.6749 466.2605
  A 12.28 8.34 83.9 0 0 458.6628 453.1638
  A 12.28 8.34 83.9 0 0 449.0651 441.8395
  A 12.28 8.34 83.9 0 0 442.0772 454.9362
  A 12.28 8.34 83.9 0 0 451.6749 466.2605"
/>
<path stroke="#be8080" vector-effect="non-scaling-stroke" d="
  M 460.80 493.83
  C 463.94 492.84 468.89 488.40 466.83 484.60
  Q 465.69 482.51 462.99 482.39
  Q 452.58 481.96 442.18 481.13
  Q 441.67 481.09 441.31 481.47
  C 436.19 486.90 436.30 491.73 443.93 493.94
  Q 452.51 496.43 460.80 493.83"
/>
<path stroke="#be8080" vector-effect="non-scaling-stroke" d="
  M 506.14 454.16
  L 523.20 453.96
  A 0.67 0.67 0.0 0 0 523.86 453.28
  L 523.86 453.16
  A 10.25 9.08 89.3 0 0 514.65 443.02
  L 514.41 443.02
  A 10.25 9.08 89.3 0 0 505.46 453.38
  L 505.46 453.50
  A 0.67 0.67 0.0 0 0 506.14 454.16"
/>
</g>
<path fill="#ffffff" d="
  M 0.00 0.00
  L 982.00 0.00
  L 982.00 547.00
  L 0.00 547.00
  L 0.00 0.00
  Z
  M 218.89 58.46
  Q 201.41 58.74 183.97 60.08
  Q 172.00 61.01 164.01 61.38
  Q 130.62 62.95 97.29 65.73
  Q 94.88 65.93 93.98 67.20
  Q 92.73 68.96 93.80 71.49
  A 0.99 0.99 0.0 0 0 94.68 72.09
  Q 133.37 73.35 172.00 73.13
  C 192.13 73.01 209.70 74.90 232.31 76.02
  Q 240.62 76.47 249.00 76.88
  Q 256.12 77.22 268.52 81.52
  C 285.53 87.41 296.69 106.16 300.55 122.89
  C 303.91 137.41 302.27 154.72 295.44 167.85
  C 291.46 175.50 288.30 180.51 280.25 182.74
  C 262.30 187.69 247.22 188.92 225.49 190.53
  C 218.65 191.03 210.82 189.78 204.63 191.64
  C 198.07 193.63 193.31 196.87 189.99 203.16
  C 162.72 254.77 136.22 306.80 108.02 357.91
  C 106.64 360.41 105.45 363.38 104.32 365.74
  A 0.56 0.56 0.0 0 0 105.28 366.31
  L 118.05 349.06
  A 0.50 0.50 0.0 0 1 118.92 349.51
  Q 117.99 352.40 116.30 355.41
  Q 112.29 362.52 108.54 369.43
  A 1.89 1.85 -37.9 0 0 108.36 370.77
  L 108.45 371.11
  A 0.47 0.47 0.0 0 0 109.28 371.28
  Q 114.23 364.55 119.55 357.89
  Q 125.24 350.77 129.80 344.60
  Q 136.51 335.50 146.51 322.50
  Q 206.84 244.05 224.15 221.74
  C 225.48 220.03 226.19 218.75 228.76 218.98
  Q 231.74 219.26 235.04 220.69
  Q 250.25 227.30 262.30 238.42
  C 271.47 246.89 277.39 259.20 280.36 270.99
  Q 284.66 288.10 287.80 308.35
  Q 290.19 323.73 291.02 328.08
  C 293.64 341.67 296.06 354.95 303.79 366.32
  C 308.42 373.14 317.05 377.31 324.74 379.49
  Q 329.42 380.82 336.87 380.90
  Q 372.03 381.26 400.63 380.94
  Q 405.55 380.89 405.51 376.29
  A 1.24 1.22 -23.8 0 1 405.86 375.41
  C 407.46 373.77 409.32 372.70 410.73 371.03
  Q 417.35 363.15 424.51 355.75
  Q 425.62 354.61 426.27 353.08
  A 0.87 0.87 0.0 0 0 426.14 352.18
  C 422.05 347.23 417.57 344.55 410.93 343.79
  C 391.85 341.63 381.29 335.06 373.01 317.17
  Q 368.42 307.25 366.14 297.04
  Q 361.76 277.44 358.47 263.93
  Q 355.40 251.29 352.38 244.94
  C 344.47 228.31 332.19 218.50 316.84 209.00
  A 0.99 0.99 0.0 0 1 316.88 207.29
  C 329.69 200.30 339.00 191.58 353.48 177.99
  C 360.92 171.01 368.45 162.54 372.64 152.95
  Q 384.70 125.35 373.40 97.76
  C 368.52 85.85 359.84 76.32 350.17 68.07
  C 336.48 56.39 322.63 56.49 304.25 56.18
  Q 257.56 55.39 218.89 58.46
  Z
  M 469.45 366.31
  Q 480.07 345.90 486.19 323.23
  Q 493.29 296.94 499.20 270.38
  C 502.40 255.98 505.46 244.95 510.10 232.52
  Q 510.97 230.18 510.54 228.11
  A 0.82 0.82 0.0 0 0 509.53 227.49
  Q 493.32 231.74 476.66 233.62
  Q 473.97 233.92 474.31 236.61
  L 474.41 237.37
  Q 474.71 239.70 477.05 239.71
  C 484.18 239.74 483.92 243.18 482.61 248.77
  Q 473.96 285.65 464.11 322.22
  Q 459.50 339.32 453.73 354.24
  Q 452.12 358.40 449.41 362.37
  C 445.31 368.36 435.54 368.73 428.74 369.15
  A 0.99 0.98 12.5 0 0 427.93 369.66
  L 425.90 373.48
  Q 424.34 376.40 427.66 376.28
  Q 453.26 375.27 478.36 377.27
  Q 478.44 377.27 486.64 378.11
  Q 518.28 381.34 545.72 367.19
  Q 583.25 347.83 595.87 306.52
  C 610.86 257.44 583.02 212.95 531.75 206.33
  C 482.32 199.94 432.81 219.93 409.97 266.01
  Q 401.23 283.64 401.48 302.49
  Q 401.74 321.81 416.06 335.87
  C 421.58 341.30 430.18 343.06 433.99 335.28
  C 436.20 330.79 434.21 327.58 430.23 324.95
  C 426.66 322.59 422.38 320.11 419.63 317.16
  Q 409.52 306.37 411.84 290.49
  Q 414.33 273.42 423.41 259.46
  Q 438.42 236.39 463.41 224.76
  Q 473.06 220.26 476.99 219.03
  C 513.90 207.50 554.75 216.51 569.12 256.24
  C 579.47 284.90 573.23 319.21 553.54 342.27
  C 532.74 366.64 501.33 373.59 470.12 367.69
  A 0.96 0.96 0.0 0 1 469.45 366.31
  Z
  M 850.36 320.91
  Q 850.47 318.95 851.28 317.78
  Q 865.17 297.55 877.81 276.54
  C 885.29 264.09 892.61 252.95 900.06 241.19
  C 901.06 239.61 902.36 236.42 904.37 234.68
  A 1.40 1.40 0.0 0 0 903.25 232.23
  Q 896.26 233.27 889.24 232.45
  A 0.99 0.98 19.6 0 0 888.30 232.89
  Q 879.91 246.05 859.68 279.17
  C 854.30 287.98 847.07 299.00 840.24 310.32
  Q 830.09 327.15 818.90 343.31
  C 812.08 353.15 804.60 361.36 796.30 369.56
  Q 790.75 375.03 783.42 378.12
  A 1.34 1.34 0.0 0 1 782.40 378.12
  C 771.13 373.60 786.71 348.94 790.75 342.18
  Q 802.69 322.18 814.60 302.48
  A 1.39 1.39 0.0 0 0 813.29 300.38
  Q 807.00 300.93 800.50 300.88
  C 796.59 300.86 794.99 306.50 794.08 309.61
  A 0.99 0.99 0.0 0 1 792.16 309.50
  L 790.74 301.49
  Q 790.65 300.96 790.23 300.63
  C 786.52 297.77 779.55 298.66 775.25 300.03
  C 753.96 306.84 734.86 319.94 722.21 338.50
  C 718.16 344.43 714.44 349.81 709.55 355.69
  Q 707.47 358.20 704.29 362.27
  Q 697.35 371.13 684.48 377.21
  Q 680.18 379.24 678.20 374.48
  C 677.29 372.28 678.58 366.86 679.86 364.16
  Q 689.80 343.24 701.72 323.40
  C 719.68 293.50 737.51 263.47 755.88 233.57
  A 1.22 1.22 0.0 0 0 754.70 231.72
  Q 747.53 232.57 740.48 231.23
  A 0.81 0.80 -70.2 0 0 739.64 231.63
  C 721.68 264.53 704.28 292.40 686.40 322.67
  Q 680.41 332.81 672.79 341.80
  C 671.90 342.86 671.41 344.05 670.55 344.97
  C 658.38 358.06 645.61 373.51 625.90 377.40
  Q 623.89 377.79 622.11 377.37
  C 613.30 375.26 610.48 370.54 612.17 361.57
  Q 614.33 350.17 621.18 340.51
  A 2.33 2.32 16.3 0 1 622.94 339.55
  C 626.76 339.35 631.02 337.74 634.03 337.10
  C 646.23 334.52 675.97 328.48 678.68 311.83
  C 679.64 305.94 675.14 300.31 669.54 299.04
  Q 666.14 298.27 660.49 299.63
  Q 633.29 306.18 613.67 325.69
  C 601.18 338.10 594.66 356.74 607.01 372.01
  Q 612.20 378.43 620.72 379.82
  C 630.73 381.44 645.12 372.25 652.28 365.77
  Q 662.21 356.80 671.25 346.74
  A 0.37 0.37 0.0 0 1 671.88 346.88
  C 672.07 347.50 672.13 348.39 671.86 349.05
  C 668.58 357.35 666.82 364.42 670.88 372.67
  C 673.81 378.62 681.21 381.93 687.27 378.53
  Q 690.93 376.48 697.68 370.80
  C 705.03 364.62 711.12 356.63 717.11 349.12
  A 0.87 0.87 0.0 0 1 718.65 349.77
  C 717.17 361.57 718.60 371.41 729.22 378.22
  C 732.36 380.24 736.17 380.94 739.79 379.13
  C 743.82 377.11 747.63 375.15 750.88 371.92
  Q 760.73 362.11 768.42 350.03
  A 0.73 0.73 0.0 0 1 769.75 350.54
  Q 769.31 353.25 768.55 356.39
  Q 765.21 370.14 775.27 377.66
  Q 778.55 380.12 782.00 379.95
  Q 785.79 379.77 789.13 377.43
  Q 806.11 365.52 816.78 348.61
  A 0.76 0.76 0.0 0 1 818.17 349.17
  C 816.85 355.45 815.75 362.26 817.87 368.15
  C 820.63 375.80 828.44 381.74 837.11 379.66
  C 860.70 373.98 887.03 354.50 894.76 330.82
  C 897.60 322.14 896.68 314.04 891.87 306.57
  Q 888.70 301.66 884.03 299.91
  C 870.00 294.66 858.36 312.59 850.74 321.07
  Q 850.32 321.54 850.36 320.91
  Z
  M 287.00 447.27
  L 287.10 440.70
  A 0.87 0.87 0.0 0 0 285.90 439.88
  L 274.33 444.64
  Q 273.82 444.85 273.82 445.41
  L 273.83 445.68
  A 0.24 0.24 0.0 0 0 274.14 445.91
  C 276.87 445.13 279.74 444.71 279.92 448.64
  Q 280.19 454.58 280.21 471.25
  Q 280.21 475.61 279.30 478.38
  A 1.29 1.29 0.0 0 1 278.60 479.15
  Q 274.13 481.11 269.49 479.43
  A 1.56 1.52 -5.6 0 1 268.71 478.81
  Q 267.44 476.83 267.42 475.26
  Q 267.30 463.13 267.20 451.01
  Q 267.17 446.98 264.80 443.84
  C 258.50 435.46 249.55 442.32 244.72 447.70
  A 0.29 0.29 0.0 0 1 244.21 447.50
  L 244.22 421.00
  Q 244.22 419.36 242.69 419.97
  Q 236.78 422.32 231.12 424.84
  Q 230.91 424.93 230.83 425.08
  Q 230.76 425.21 230.75 425.33
  Q 230.70 425.76 231.13 425.73
  L 235.07 425.46
  A 1.51 1.50 -6.7 0 1 236.67 426.72
  Q 237.17 429.92 237.20 432.25
  Q 237.43 453.12 237.20 474.00
  Q 237.13 480.11 231.40 480.08
  Q 231.19 480.08 231.19 480.29
  L 231.19 480.70
  Q 231.18 481.05 231.54 481.05
  L 250.27 480.98
  Q 250.63 480.98 250.65 480.63
  L 250.67 480.36
  A 0.25 0.24 -1.0 0 0 250.40 480.10
  Q 244.29 480.74 244.25 475.51
  Q 244.15 463.51 244.20 451.50
  Q 244.20 451.01 244.47 450.62
  C 247.09 446.86 252.96 443.22 257.43 445.83
  Q 260.19 447.45 260.39 451.26
  Q 260.74 457.97 260.57 474.26
  Q 260.50 480.38 254.75 480.09
  A 0.46 0.46 0.0 0 0 254.26 480.52
  L 254.25 480.79
  Q 254.23 481.03 254.47 481.03
  L 293.29 480.99
  A 0.41 0.40 -15.9 0 0 293.64 480.37
  L 293.47 480.10
  Q 293.39 479.98 293.25 480.00
  Q 287.16 480.65 287.11 474.67
  Q 286.97 458.46 286.99 451.27
  A 1.40 1.39 -24.9 0 1 287.32 450.37
  C 290.13 447.07 296.14 443.17 300.43 445.73
  C 303.41 447.50 303.60 451.74 303.59 455.00
  Q 303.57 465.12 303.58 475.26
  Q 303.59 480.67 297.67 480.01
  Q 297.46 479.98 297.36 480.17
  L 297.15 480.56
  A 0.32 0.32 0.0 0 0 297.44 481.03
  L 316.36 480.98
  A 0.27 0.27 0.0 0 0 316.63 480.70
  L 316.61 480.43
  Q 316.59 480.10 316.25 480.11
  Q 310.47 480.44 310.50 475.28
  Q 310.58 464.23 310.35 453.19
  C 310.02 436.52 296.39 437.18 287.74 447.54
  Q 286.98 448.45 287.00 447.27
  Z
  M 369.44 436.58
  L 369.33 448.36
  Q 369.30 459.59 369.23 470.96
  C 369.19 475.98 369.71 479.96 363.81 480.19
  Q 363.41 480.20 363.41 480.60
  L 363.40 480.88
  Q 363.40 481.04 363.56 481.04
  L 382.31 480.98
  A 0.33 0.33 0.0 0 0 382.64 480.67
  L 382.65 480.38
  Q 382.66 480.24 382.52 480.22
  C 379.17 479.78 376.21 479.53 376.20 475.25
  Q 376.12 447.76 376.19 420.72
  A 0.92 0.92 0.0 0 0 374.92 419.87
  L 363.23 424.72
  A 0.49 0.49 0.0 0 0 363.44 425.66
  L 367.29 425.46
  Q 367.84 425.43 368.15 425.89
  C 369.67 428.18 369.44 435.36 369.44 436.58
  Z
  M 484.8319 429.9785
  A 4.99 4.27 88.6 0 0 488.9787 424.8857
  A 4.99 4.27 88.6 0 0 484.5881 420.0015
  A 4.99 4.27 88.6 0 0 480.4413 425.0943
  A 4.99 4.27 88.6 0 0 484.8319 429.9785
  Z
  M 858.02 443.57
  Q 853.47 439.42 847.97 440.04
  C 831.25 441.94 825.03 468.79 838.05 478.74
  C 844.66 483.80 852.43 482.90 857.74 476.37
  A 0.54 0.54 0.0 0 1 858.70 476.73
  L 858.55 481.16
  A 1.02 1.02 0.0 0 0 859.97 482.13
  L 871.81 477.08
  Q 872.13 476.94 872.04 476.60
  L 871.97 476.36
  Q 871.94 476.25 871.83 476.26
  L 868.32 476.59
  A 2.55 2.55 0.0 0 1 865.53 474.06
  L 865.48 420.75
  A 0.92 0.91 -11.2 0 0 864.21 419.91
  L 852.33 424.84
  A 0.46 0.46 0.0 0 0 852.54 425.72
  L 856.43 425.41
  A 1.02 1.01 71.4 0 1 857.37 425.88
  C 859.54 429.29 858.67 439.65 858.52 443.36
  Q 858.49 444.00 858.02 443.57
  Z
  M 129.35 426.06
  C 136.60 425.75 147.28 424.39 147.73 435.11
  Q 147.76 435.83 148.47 435.94
  L 148.80 435.99
  A 0.50 0.49 2.4 0 0 149.37 435.47
  L 148.75 423.49
  Q 148.73 423.00 148.24 423.00
  L 101.94 423.00
  Q 101.38 423.00 101.34 423.56
  L 100.65 435.49
  Q 100.62 436.12 101.25 436.07
  L 101.53 436.05
  Q 102.27 435.99 102.31 435.24
  C 102.81 424.60 112.86 425.50 120.30 426.13
  Q 120.82 426.17 120.82 426.70
  Q 120.78 449.30 120.82 471.96
  C 120.83 477.56 119.31 480.93 113.04 479.92
  A 0.40 0.40 0.0 0 0 112.58 480.31
  L 112.58 480.70
  Q 112.57 481.08 112.95 481.08
  L 136.99 480.97
  A 0.43 0.43 0.0 0 0 137.07 480.11
  C 134.98 479.69 132.94 480.35 131.01 478.99
  C 128.87 477.48 128.77 473.15 128.76 470.75
  Q 128.72 448.67 128.84 426.59
  Q 128.84 426.08 129.35 426.06
  Z
  M 608.15 453.72
  Q 614.23 455.31 620.49 454.84
  C 629.93 454.13 636.98 446.83 635.70 437.08
  C 634.52 428.10 625.77 423.33 617.22 423.18
  Q 600.91 422.89 591.81 423.06
  Q 591.55 423.06 591.57 423.32
  L 591.59 423.59
  Q 591.62 424.00 592.03 423.97
  C 595.55 423.68 599.73 424.59 599.76 429.01
  Q 599.87 442.11 599.79 473.01
  Q 599.77 480.87 592.06 479.98
  A 0.41 0.41 0.0 0 0 591.60 480.35
  L 591.58 480.60
  A 0.42 0.41 -86.9 0 0 591.99 481.06
  L 615.76 480.99
  Q 616.12 480.99 616.14 480.63
  L 616.15 480.37
  Q 616.16 480.19 615.98 480.17
  C 611.93 479.70 608.01 480.17 607.87 474.50
  Q 607.63 464.30 607.67 454.08
  Q 607.67 453.59 608.15 453.72
  Z
  M 769.26 432.93
  C 769.30 425.31 770.81 424.15 778.66 423.80
  Q 779.09 423.78 778.93 423.39
  L 778.82 423.12
  Q 778.77 423.01 778.65 423.01
  L 753.20 422.97
  Q 752.61 422.97 752.84 423.51
  L 752.99 423.87
  A 0.29 0.28 -13.9 0 0 753.28 424.04
  C 762.04 423.16 761.15 428.89 761.21 435.76
  Q 761.38 454.92 761.13 474.07
  C 761.05 480.15 757.38 479.45 753.17 480.08
  A 0.49 0.49 0.0 0 0 753.24 481.05
  L 797.23 480.98
  A 0.72 0.71 9.0 0 0 797.91 480.49
  L 802.64 465.80
  A 0.40 0.40 0.0 0 0 802.35 465.29
  L 802.04 465.22
  A 0.79 0.78 -74.5 0 0 801.11 465.75
  C 796.58 479.87 786.74 478.21 774.70 477.98
  C 771.14 477.91 769.31 477.05 769.28 473.25
  Q 769.15 453.09 769.26 432.93
  Z
  M 696.54 444.02
  L 704.25 444.00
  Q 705.25 444.00 705.26 443.00
  L 705.28 441.77
  Q 705.29 441.00 704.52 441.00
  L 696.48 440.97
  A 0.49 0.48 90.0 0 1 696.00 440.48
  L 696.16 428.90
  A 0.88 0.87 21.3 0 0 695.86 428.22
  Q 695.13 427.59 694.82 428.51
  Q 691.65 437.79 683.12 442.65
  A 0.73 0.73 0.0 0 0 683.47 444.01
  L 688.49 444.05
  Q 689.16 444.05 689.14 444.72
  Q 688.71 459.12 689.30 473.52
  C 689.80 485.64 702.40 483.34 706.17 474.83
  Q 706.39 474.34 705.92 474.08
  L 705.70 473.96
  A 0.58 0.57 -59.5 0 0 704.93 474.16
  Q 702.82 477.54 699.33 476.94
  C 696.32 476.41 696.06 473.81 696.04 471.25
  Q 695.94 457.87 696.07 444.48
  Q 696.08 444.02 696.54 444.02
  Z
  M 818.74 444.01
  L 826.25 444.00
  Q 827.25 444.00 827.25 443.00
  L 827.26 441.77
  Q 827.27 441.02 826.52 441.01
  L 818.63 440.98
  Q 818.03 440.97 818.03 440.38
  L 818.10 428.59
  A 0.71 0.70 54.3 0 0 816.73 428.36
  Q 813.65 437.90 804.96 442.77
  A 0.65 0.64 -59.1 0 0 805.26 443.98
  L 810.46 444.05
  Q 811.04 444.06 811.04 444.64
  Q 810.97 457.19 811.17 469.75
  C 811.25 474.96 811.46 480.53 816.68 481.74
  C 821.68 482.90 826.31 479.14 828.25 474.69
  A 0.46 0.46 0.0 0 0 828.04 474.09
  L 827.75 473.93
  A 0.46 0.46 0.0 0 0 827.15 474.08
  Q 824.62 477.97 820.09 476.66
  A 1.51 1.49 -6.5 0 1 819.20 475.96
  Q 818.11 474.05 818.08 471.50
  Q 817.92 458.08 818.07 444.66
  Q 818.08 444.01 818.74 444.01
  Z
  M 160.24 457.52
  A 0.52 0.52 0.0 0 1 160.76 457.01
  L 186.75 457.00
  Q 187.21 457.00 187.23 456.54
  C 188.06 436.38 161.29 434.72 155.82 451.83
  Q 153.90 457.81 154.56 464.75
  C 156.55 486.04 184.06 488.50 187.36 466.72
  A 0.46 0.45 16.1 0 0 187.09 466.24
  L 186.82 466.14
  A 0.54 0.53 19.7 0 0 186.10 466.48
  Q 183.22 475.90 174.02 475.05
  C 164.62 474.17 160.10 466.06 160.24 457.52
  Z
  M 200.87 459.38
  C 200.21 453.29 202.59 443.64 210.03 443.02
  Q 216.66 442.47 217.55 448.12
  Q 217.95 450.61 218.73 451.50
  C 220.49 453.53 224.37 453.65 225.57 450.86
  C 226.73 448.16 224.53 445.00 222.37 443.38
  C 214.61 437.52 203.82 439.70 198.20 447.39
  C 190.39 458.07 193.46 479.55 208.86 481.94
  C 218.28 483.40 225.95 474.34 226.82 465.70
  A 0.49 0.48 -28.3 0 0 225.91 465.43
  C 223.04 470.80 221.65 474.76 214.48 474.93
  C 205.24 475.14 201.73 467.23 200.87 459.38
  Z
  M 337.1986 482.0121
  A 21.09 18.83 94.6 0 0 357.6593 462.5001
  A 21.09 18.83 94.6 0 0 340.5814 439.9679
  A 21.09 18.83 94.6 0 0 320.1207 459.4799
  A 21.09 18.83 94.6 0 0 337.1986 482.0121
  Z
  M 405.1978 482.0220
  A 21.10 18.81 94.6 0 0 425.6394 462.4985
  A 21.10 18.81 94.6 0 0 408.5822 439.9580
  A 21.10 18.81 94.6 0 0 388.1406 459.4815
  A 21.10 18.81 94.6 0 0 405.1978 482.0220
  Z
  M 464.25 446.01
  L 470.51 446.00
  Q 471.77 445.99 471.72 444.74
  L 471.70 444.30
  Q 471.64 442.93 470.27 442.97
  C 466.40 443.05 461.96 443.63 458.46 441.89
  Q 452.25 438.80 445.97 440.59
  C 433.69 444.08 430.17 459.35 441.92 466.21
  Q 442.51 466.56 441.96 466.96
  C 437.60 470.22 431.30 476.95 439.20 480.29
  A 0.46 0.46 0.0 0 1 439.33 481.05
  Q 437.51 482.73 435.95 484.59
  C 432.45 488.75 429.02 492.63 435.29 496.41
  C 445.32 502.47 459.19 500.97 467.18 492.23
  C 472.25 486.68 470.98 478.85 463.63 476.52
  Q 460.15 475.42 457.99 475.50
  Q 450.23 475.76 442.73 474.70
  A 2.01 2.01 0.0 0 1 441.05 472.25
  Q 441.74 469.33 443.98 467.37
  Q 444.37 467.03 444.87 467.17
  Q 454.78 469.93 461.42 464.02
  C 466.64 459.36 467.27 452.53 463.93 446.55
  Q 463.63 446.01 464.25 446.01
  Z
  M 480.35 446.11
  Q 481.08 448.19 481.13 450.45
  Q 481.35 460.67 481.23 470.88
  C 481.17 476.10 481.75 480.22 475.44 480.12
  Q 475.25 480.12 475.25 480.30
  L 475.24 480.55
  Q 475.23 481.05 475.74 481.05
  L 493.78 480.99
  Q 494.03 480.99 494.08 480.74
  L 494.13 480.47
  A 0.28 0.27 4.9 0 0 493.85 480.14
  Q 488.28 480.32 488.24 475.52
  Q 488.09 457.94 488.24 440.78
  A 0.92 0.92 0.0 0 0 486.97 439.92
  L 475.06 444.76
  A 0.52 0.51 71.2 0 0 474.76 445.38
  L 474.85 445.67
  Q 474.90 445.84 475.07 445.83
  L 479.40 445.48
  A 0.94 0.93 -11.3 0 1 480.35 446.11
  Z
  M 505.78 457.01
  L 531.77 457.00
  Q 532.21 457.00 532.23 456.56
  C 532.87 442.67 518.64 435.37 507.39 443.24
  C 494.15 452.50 497.03 481.25 516.15 482.07
  C 524.70 482.44 531.33 474.71 532.33 466.81
  A 0.61 0.61 0.0 0 0 531.16 466.52
  Q 528.00 475.11 520.24 475.09
  C 510.54 475.05 504.99 466.78 505.25 457.52
  Q 505.27 457.01 505.78 457.01
  Z
  M 562.09 441.47
  A 1.53 1.52 26.3 0 1 560.38 442.04
  C 557.25 441.04 553.84 439.71 550.73 440.08
  C 545.87 440.64 542.08 443.60 540.83 448.47
  C 537.63 460.95 552.26 462.87 558.72 468.27
  C 562.53 471.44 560.82 478.67 555.52 478.97
  Q 544.76 479.57 541.84 469.56
  A 0.66 0.66 0.0 0 0 540.55 469.74
  L 540.61 481.65
  A 0.47 0.47 0.0 0 0 541.47 481.90
  L 542.57 480.16
  A 0.65 0.64 23.2 0 1 543.28 479.88
  C 550.13 481.60 555.62 483.76 561.96 479.35
  C 567.52 475.48 568.68 467.94 564.04 462.88
  C 559.73 458.18 552.34 457.30 547.54 453.14
  C 543.46 449.60 545.24 444.01 550.48 443.16
  C 557.88 441.96 560.89 446.46 562.96 452.67
  A 0.61 0.61 0.0 0 0 564.14 452.47
  L 564.05 440.41
  A 0.54 0.54 0.0 0 0 563.07 440.10
  L 562.09 441.47
  Z
  M 663.01 469.74
  A 0.39 0.39 0.0 0 1 662.30 469.75
  Q 657.69 459.17 653.33 448.53
  C 651.79 444.76 651.84 441.71 656.94 441.79
  Q 657.17 441.79 657.14 441.57
  L 657.08 441.17
  Q 657.06 441.01 656.90 441.01
  L 639.24 440.97
  Q 638.70 440.97 638.66 441.51
  L 638.64 441.81
  A 0.28 0.28 0.0 0 0 638.89 442.11
  Q 643.04 442.55 644.20 445.32
  Q 651.69 463.17 659.16 481.04
  Q 659.68 482.27 660.94 482.01
  A 0.87 0.86 -83.8 0 0 661.56 481.50
  Q 669.04 463.44 676.39 445.44
  C 677.29 443.25 678.58 442.18 680.81 441.82
  A 0.42 0.42 0.0 0 0 680.75 440.99
  L 668.76 440.98
  Q 668.33 440.98 668.30 441.41
  L 668.29 441.68
  Q 668.28 441.87 668.46 441.89
  L 671.24 442.20
  A 2.09 2.09 0.0 0 1 672.94 445.06
  L 663.01 469.74
  Z
  M 718.0047 481.9699
  A 4.97 4.66 89.6 0 0 722.6299 476.9675
  A 4.97 4.66 89.6 0 0 717.9353 472.0301
  A 4.97 4.66 89.6 0 0 713.3101 477.0325
  A 4.97 4.66 89.6 0 0 718.0047 481.9699
  Z
  M 882.8142 481.9576
  A 4.96 4.64 91.8 0 0 887.6077 477.1457
  A 4.96 4.64 91.8 0 0 883.1258 472.0424
  A 4.96 4.64 91.8 0 0 878.3323 476.8543
  A 4.96 4.64 91.8 0 0 882.8142 481.9576
  Z"
/>
<path fill="#b43437" d="
  M 232.31 76.02
  L 230.62 75.30
  Q 230.39 75.19 230.51 74.97
  Q 230.59 74.82 230.77 74.89
  Q 231.41 75.15 231.14 74.79
  Q 230.32 73.66 230.88 72.34
  A 0.80 0.79 27.6 0 0 230.57 71.37
  Q 228.76 70.21 229.94 68.59
  Q 230.31 68.09 229.97 67.57
  Q 228.56 65.43 229.27 62.71
  Q 229.38 62.29 229.65 61.96
  Q 229.93 61.63 229.96 61.21
  Q 230.00 60.70 229.50 60.27
  Q 229.34 60.14 229.47 59.98
  Q 229.58 59.84 229.92 59.69
  A 0.34 0.34 0.0 0 0 229.78 59.04
  L 213.12 59.11
  Q 213.12 59.11 213.12 58.94
  Q 213.12 58.91 213.12 58.88
  A 0.12 0.12 0.0 0 1 213.23 58.76
  L 218.89 58.46
  Q 257.56 55.39 304.25 56.18
  C 322.63 56.49 336.48 56.39 350.17 68.07
  C 359.84 76.32 368.52 85.85 373.40 97.76
  Q 384.70 125.35 372.64 152.95
  C 368.45 162.54 360.92 171.01 353.48 177.99
  C 339.00 191.58 329.69 200.30 316.88 207.29
  A 0.99 0.99 0.0 0 0 316.84 209.00
  C 332.19 218.50 344.47 228.31 352.38 244.94
  Q 355.40 251.29 358.47 263.93
  Q 361.76 277.44 366.14 297.04
  Q 368.42 307.25 373.01 317.17
  C 381.29 335.06 391.85 341.63 410.93 343.79
  C 417.57 344.55 422.05 347.23 426.14 352.18
  A 0.87 0.87 0.0 0 1 426.27 353.08
  Q 425.62 354.61 424.51 355.75
  Q 417.35 363.15 410.73 371.03
  C 409.32 372.70 407.46 373.77 405.86 375.41
  A 1.24 1.22 -23.8 0 0 405.51 376.29
  Q 405.55 380.89 400.63 380.94
  Q 372.03 381.26 336.87 380.90
  Q 329.42 380.82 324.74 379.49
  C 317.05 377.31 308.42 373.14 303.79 366.32
  C 296.06 354.95 293.64 341.67 291.02 328.08
  Q 290.19 323.73 287.80 308.35
  Q 284.66 288.10 280.36 270.99
  C 277.39 259.20 271.47 246.89 262.30 238.42
  Q 250.25 227.30 235.04 220.69
  Q 231.74 219.26 228.76 218.98
  C 226.19 218.75 225.48 220.03 224.15 221.74
  Q 206.84 244.05 146.51 322.50
  Q 136.51 335.50 129.80 344.60
  Q 125.24 350.77 119.55 357.89
  Q 114.23 364.55 109.28 371.28
  A 0.47 0.47 0.0 0 1 108.45 371.11
  L 108.36 370.77
  A 1.89 1.85 -37.9 0 1 108.54 369.43
  Q 112.29 362.52 116.30 355.41
  Q 117.99 352.40 118.92 349.51
  A 0.50 0.50 0.0 0 0 118.05 349.06
  L 105.28 366.31
  A 0.56 0.56 0.0 0 1 104.32 365.74
  C 105.45 363.38 106.64 360.41 108.02 357.91
  C 136.22 306.80 162.72 254.77 189.99 203.16
  C 193.31 196.87 198.07 193.63 204.63 191.64
  C 210.82 189.78 218.65 191.03 225.49 190.53
  C 247.22 188.92 262.30 187.69 280.25 182.74
  C 288.30 180.51 291.46 175.50 295.44 167.85
  C 302.27 154.72 303.91 137.41 300.55 122.89
  C 296.69 106.16 285.53 87.41 268.52 81.52
  Q 256.12 77.22 249.00 76.88
  Q 240.62 76.47 232.31 76.02
  Z"
/>
<path fill="#963f49" d="
  M 218.89 58.46
  L 213.23 58.76
  A 0.12 0.12 0.0 0 0 213.12 58.88
  Q 213.12 58.91 213.12 58.94
  Q 213.12 59.11 213.12 59.11
  L 229.78 59.04
  A 0.34 0.34 0.0 0 1 229.92 59.69
  Q 229.58 59.84 229.47 59.98
  Q 229.34 60.14 229.50 60.27
  Q 230.00 60.70 229.96 61.21
  Q 229.93 61.63 229.65 61.96
  Q 229.38 62.29 229.27 62.71
  Q 228.56 65.43 229.97 67.57
  Q 230.31 68.09 229.94 68.59
  Q 228.76 70.21 230.57 71.37
  A 0.80 0.79 27.6 0 1 230.88 72.34
  Q 230.32 73.66 231.14 74.79
  Q 231.41 75.15 230.77 74.89
  Q 230.59 74.82 230.51 74.97
  Q 230.39 75.19 230.62 75.30
  L 232.31 76.02
  C 209.70 74.90 192.13 73.01 172.00 73.13
  Q 133.37 73.35 94.68 72.09
  A 0.99 0.99 0.0 0 1 93.80 71.49
  Q 92.73 68.96 93.98 67.20
  Q 94.88 65.93 97.29 65.73
  Q 130.62 62.95 164.01 61.38
  Q 172.00 61.01 183.97 60.08
  Q 201.41 58.74 218.89 58.46
  Z"
/>
<path fill="#010101" d="
  M 469.45 366.31
  A 0.96 0.96 0.0 0 0 470.12 367.69
  C 501.33 373.59 532.74 366.64 553.54 342.27
  C 573.23 319.21 579.47 284.90 569.12 256.24
  C 554.75 216.51 513.90 207.50 476.99 219.03
  Q 473.06 220.26 463.41 224.76
  Q 438.42 236.39 423.41 259.46
  Q 414.33 273.42 411.84 290.49
  Q 409.52 306.37 419.63 317.16
  C 422.38 320.11 426.66 322.59 430.23 324.95
  C 434.21 327.58 436.20 330.79 433.99 335.28
  C 430.18 343.06 421.58 341.30 416.06 335.87
  Q 401.74 321.81 401.48 302.49
  Q 401.23 283.64 409.97 266.01
  C 432.81 219.93 482.32 199.94 531.75 206.33
  C 583.02 212.95 610.86 257.44 595.87 306.52
  Q 583.25 347.83 545.72 367.19
  Q 518.28 381.34 486.64 378.11
  Q 478.44 377.27 478.36 377.27
  Q 453.26 375.27 427.66 376.28
  Q 424.34 376.40 425.90 373.48
  L 427.93 369.66
  A 0.99 0.98 12.5 0 1 428.74 369.15
  C 435.54 368.73 445.31 368.36 449.41 362.37
  Q 452.12 358.40 453.73 354.24
  Q 459.50 339.32 464.11 322.22
  Q 473.96 285.65 482.61 248.77
  C 483.92 243.18 484.18 239.74 477.05 239.71
  Q 474.71 239.70 474.41 237.37
  L 474.31 236.61
  Q 473.97 233.92 476.66 233.62
  Q 493.32 231.74 509.53 227.49
  A 0.82 0.82 0.0 0 1 510.54 228.11
  Q 510.97 230.18 510.10 232.52
  C 505.46 244.95 502.40 255.98 499.20 270.38
  Q 493.29 296.94 486.19 323.23
  Q 480.07 345.90 469.45 366.31
  Z"
/>
<path fill="#010101" d="
  M 850.74 321.07
  C 858.36 312.59 870.00 294.66 884.03 299.91
  Q 888.70 301.66 891.87 306.57
  C 896.68 314.04 897.60 322.14 894.76 330.82
  C 887.03 354.50 860.70 373.98 837.11 379.66
  C 828.44 381.74 820.63 375.80 817.87 368.15
  C 815.75 362.26 816.85 355.45 818.17 349.17
  A 0.76 0.76 0.0 0 0 816.78 348.61
  Q 806.11 365.52 789.13 377.43
  Q 785.79 379.77 782.00 379.95
  Q 778.55 380.12 775.27 377.66
  Q 765.21 370.14 768.55 356.39
  Q 769.31 353.25 769.75 350.54
  A 0.73 0.73 0.0 0 0 768.42 350.03
  Q 760.73 362.11 750.88 371.92
  C 747.63 375.15 743.82 377.11 739.79 379.13
  C 736.17 380.94 732.36 380.24 729.22 378.22
  C 718.60 371.41 717.17 361.57 718.65 349.77
  A 0.87 0.87 0.0 0 0 717.11 349.12
  C 711.12 356.63 705.03 364.62 697.68 370.80
  Q 690.93 376.48 687.27 378.53
  C 681.21 381.93 673.81 378.62 670.88 372.67
  C 666.82 364.42 668.58 357.35 671.86 349.05
  C 672.13 348.39 672.07 347.50 671.88 346.88
  A 0.37 0.37 0.0 0 0 671.25 346.74
  Q 662.21 356.80 652.28 365.77
  C 645.12 372.25 630.73 381.44 620.72 379.82
  Q 612.20 378.43 607.01 372.01
  C 594.66 356.74 601.18 338.10 613.67 325.69
  Q 633.29 306.18 660.49 299.63
  Q 666.14 298.27 669.54 299.04
  C 675.14 300.31 679.64 305.94 678.68 311.83
  C 675.97 328.48 646.23 334.52 634.03 337.10
  C 631.02 337.74 626.76 339.35 622.94 339.55
  A 2.33 2.32 16.3 0 0 621.18 340.51
  Q 614.33 350.17 612.17 361.57
  C 610.48 370.54 613.30 375.26 622.11 377.37
  Q 623.89 377.79 625.90 377.40
  C 645.61 373.51 658.38 358.06 670.55 344.97
  C 671.41 344.05 671.90 342.86 672.79 341.80
  Q 680.41 332.81 686.40 322.67
  C 704.28 292.40 721.68 264.53 739.64 231.63
  A 0.81 0.80 -70.2 0 1 740.48 231.23
  Q 747.53 232.57 754.70 231.72
  A 1.22 1.22 0.0 0 1 755.88 233.57
  C 737.51 263.47 719.68 293.50 701.72 323.40
  Q 689.80 343.24 679.86 364.16
  C 678.58 366.86 677.29 372.28 678.20 374.48
  Q 680.18 379.24 684.48 377.21
  Q 697.35 371.13 704.29 362.27
  Q 707.47 358.20 709.55 355.69
  C 714.44 349.81 718.16 344.43 722.21 338.50
  C 734.86 319.94 753.96 306.84 775.25 300.03
  C 779.55 298.66 786.52 297.77 790.23 300.63
  Q 790.65 300.96 790.74 301.49
  L 792.16 309.50
  A 0.99 0.99 0.0 0 0 794.08 309.61
  C 794.99 306.50 796.59 300.86 800.50 300.88
  Q 807.00 300.93 813.29 300.38
  A 1.39 1.39 0.0 0 1 814.60 302.48
  Q 802.69 322.18 790.75 342.18
  C 786.71 348.94 771.13 373.60 782.40 378.12
  A 1.34 1.34 0.0 0 0 783.42 378.12
  Q 790.75 375.03 796.30 369.56
  C 804.60 361.36 812.08 353.15 818.90 343.31
  Q 830.09 327.15 840.24 310.32
  C 847.07 299.00 854.30 287.98 859.68 279.17
  Q 879.91 246.05 888.30 232.89
  A 0.99 0.98 19.6 0 1 889.24 232.45
  Q 896.26 233.27 903.25 232.23
  A 1.40 1.40 0.0 0 1 904.37 234.68
  C 902.36 236.42 901.06 239.61 900.06 241.19
  C 892.61 252.95 885.29 264.09 877.81 276.54
  Q 865.17 297.55 851.28 317.78
  Q 850.47 318.95 850.36 320.91
  Q 850.32 321.54 850.74 321.07
  Z
  M 629.51 336.18
  C 643.35 331.49 658.64 324.99 668.16 312.95
  C 670.41 310.11 672.21 305.77 670.32 302.41
  C 667.32 297.06 656.66 303.34 652.89 306.16
  Q 636.07 318.75 623.90 336.12
  Q 622.87 337.58 624.65 337.84
  C 625.98 338.03 628.26 336.60 629.51 336.18
  Z
  M 784.83 323.30
  C 786.94 319.69 789.72 314.21 789.77 309.67
  Q 789.82 305.74 788.90 303.48
  C 786.19 296.87 774.07 303.89 770.70 306.49
  Q 746.95 324.80 733.13 351.25
  C 730.32 356.63 728.57 363.39 728.53 368.99
  C 728.50 373.66 733.19 380.01 738.50 377.22
  C 750.21 371.06 755.82 363.67 765.39 351.57
  Q 776.51 337.51 784.83 323.30
  Z
  M 832.74 349.85
  C 829.03 355.79 817.87 373.80 828.99 377.59
  C 835.87 379.93 848.30 369.38 853.31 364.67
  C 864.18 354.45 873.37 341.72 880.57 328.69
  Q 882.79 324.67 884.01 320.60
  C 886.24 313.17 888.92 302.52 878.03 300.84
  A 1.78 1.67 35.9 0 0 877.10 300.96
  Q 869.56 304.28 867.92 305.69
  Q 864.73 308.46 855.88 318.16
  Q 850.86 323.66 846.06 330.54
  C 841.57 336.97 836.64 343.61 832.74 349.85
  Z"
/>
<path fill="#ffffff" d="
  M 629.51 336.18
  C 628.26 336.60 625.98 338.03 624.65 337.84
  Q 622.87 337.58 623.90 336.12
  Q 636.07 318.75 652.89 306.16
  C 656.66 303.34 667.32 297.06 670.32 302.41
  C 672.21 305.77 670.41 310.11 668.16 312.95
  C 658.64 324.99 643.35 331.49 629.51 336.18
  Z"
/>
<path fill="#ffffff" d="
  M 784.83 323.30
  Q 776.51 337.51 765.39 351.57
  C 755.82 363.67 750.21 371.06 738.50 377.22
  C 733.19 380.01 728.50 373.66 728.53 368.99
  C 728.57 363.39 730.32 356.63 733.13 351.25
  Q 746.95 324.80 770.70 306.49
  C 774.07 303.89 786.19 296.87 788.90 303.48
  Q 789.82 305.74 789.77 309.67
  C 789.72 314.21 786.94 319.69 784.83 323.30
  Z"
/>
<path fill="#ffffff" d="
  M 828.99 377.59
  C 817.87 373.80 829.03 355.79 832.74 349.85
  C 836.64 343.61 841.57 336.97 846.06 330.54
  Q 850.86 323.66 855.88 318.16
  Q 864.73 308.46 867.92 305.69
  Q 869.56 304.28 877.10 300.96
  A 1.78 1.67 35.9 0 1 878.03 300.84
  C 888.92 302.52 886.24 313.17 884.01 320.60
  Q 882.79 324.67 880.57 328.69
  C 873.37 341.72 864.18 354.45 853.31 364.67
  C 848.30 369.38 835.87 379.93 828.99 377.59
  Z"
/>
<path fill="#7d0100" d="
  M 287.74 447.54
  C 296.39 437.18 310.02 436.52 310.35 453.19
  Q 310.58 464.23 310.50 475.28
  Q 310.47 480.44 316.25 480.11
  Q 316.59 480.10 316.61 480.43
  L 316.63 480.70
  A 0.27 0.27 0.0 0 1 316.36 480.98
  L 297.44 481.03
  A 0.32 0.32 0.0 0 1 297.15 480.56
  L 297.36 480.17
  Q 297.46 479.98 297.67 480.01
  Q 303.59 480.67 303.58 475.26
  Q 303.57 465.12 303.59 455.00
  C 303.60 451.74 303.41 447.50 300.43 445.73
  C 296.14 443.17 290.13 447.07 287.32 450.37
  A 1.40 1.39 -24.9 0 0 286.99 451.27
  Q 286.97 458.46 287.11 474.67
  Q 287.16 480.65 293.25 480.00
  Q 293.39 479.98 293.47 480.10
  L 293.64 480.37
  A 0.41 0.40 -15.9 0 1 293.29 480.99
  L 254.47 481.03
  Q 254.23 481.03 254.25 480.79
  L 254.26 480.52
  A 0.46 0.46 0.0 0 1 254.75 480.09
  Q 260.50 480.38 260.57 474.26
  Q 260.74 457.97 260.39 451.26
  Q 260.19 447.45 257.43 445.83
  C 252.96 443.22 247.09 446.86 244.47 450.62
  Q 244.20 451.01 244.20 451.50
  Q 244.15 463.51 244.25 475.51
  Q 244.29 480.74 250.40 480.10
  A 0.25 0.24 -1.0 0 1 250.67 480.36
  L 250.65 480.63
  Q 250.63 480.98 250.27 480.98
  L 231.54 481.05
  Q 231.18 481.05 231.19 480.70
  L 231.19 480.29
  Q 231.19 480.08 231.40 480.08
  Q 237.13 480.11 237.20 474.00
  Q 237.43 453.12 237.20 432.25
  Q 237.17 429.92 236.67 426.72
  A 1.51 1.50 -6.7 0 0 235.07 425.46
  L 231.13 425.73
  Q 230.70 425.76 230.75 425.33
  Q 230.76 425.21 230.83 425.08
  Q 230.91 424.93 231.12 424.84
  Q 236.78 422.32 242.69 419.97
  Q 244.22 419.36 244.22 421.00
  L 244.21 447.50
  A 0.29 0.29 0.0 0 0 244.72 447.70
  C 249.55 442.32 258.50 435.46 264.80 443.84
  Q 267.17 446.98 267.20 451.01
  Q 267.30 463.13 267.42 475.26
  Q 267.44 476.83 268.71 478.81
  A 1.56 1.52 -5.6 0 0 269.49 479.43
  Q 274.13 481.11 278.60 479.15
  A 1.29 1.29 0.0 0 0 279.30 478.38
  Q 280.21 475.61 280.21 471.25
  Q 280.19 454.58 279.92 448.64
  C 279.74 444.71 276.87 445.13 274.14 445.91
  A 0.24 0.24 0.0 0 1 273.83 445.68
  L 273.82 445.41
  Q 273.82 444.85 274.33 444.64
  L 285.90 439.88
  A 0.87 0.87 0.0 0 1 287.10 440.70
  L 287.00 447.27
  Q 286.98 448.45 287.74 447.54
  Z"
/>
<path fill="#7d0100" d="
  M 369.33 448.36
  Q 370.09 442.53 369.44 436.58
  C 369.44 435.36 369.67 428.18 368.15 425.89
  Q 367.84 425.43 367.29 425.46
  L 363.44 425.66
  A 0.49 0.49 0.0 0 1 363.23 424.72
  L 374.92 419.87
  A 0.92 0.92 0.0 0 1 376.19 420.72
  Q 376.12 447.76 376.20 475.25
  C 376.21 479.53 379.17 479.78 382.52 480.22
  Q 382.66 480.24 382.65 480.38
  L 382.64 480.67
  A 0.33 0.33 0.0 0 1 382.31 480.98
  L 363.56 481.04
  Q 363.40 481.04 363.40 480.88
  L 363.41 480.60
  Q 363.41 480.20 363.81 480.19
  C 369.71 479.96 369.19 475.98 369.23 470.96
  Q 369.30 459.59 369.33 448.36
  Z"
/>
<ellipse fill="#7d0100" cx="0.00" cy="0.00" transform="translate(484.71,424.99) rotate(88.6)" rx="4.99" ry="4.27"/>
<path fill="#7d0100" d="
  M 858.52 443.36
  C 858.67 439.65 859.54 429.29 857.37 425.88
  A 1.02 1.01 71.4 0 0 856.43 425.41
  L 852.54 425.72
  A 0.46 0.46 0.0 0 1 852.33 424.84
  L 864.21 419.91
  A 0.92 0.91 -11.2 0 1 865.48 420.75
  L 865.53 474.06
  A 2.55 2.55 0.0 0 0 868.32 476.59
  L 871.83 476.26
  Q 871.94 476.25 871.97 476.36
  L 872.04 476.60
  Q 872.13 476.94 871.81 477.08
  L 859.97 482.13
  A 1.02 1.02 0.0 0 1 858.55 481.16
  L 858.70 476.73
  A 0.54 0.54 0.0 0 0 857.74 476.37
  C 852.43 482.90 844.66 483.80 838.05 478.74
  C 825.03 468.79 831.25 441.94 847.97 440.04
  Q 853.47 439.42 858.02 443.57
  Q 858.49 444.00 858.52 443.36
  Z
  M 840.41 449.68
  Q 837.04 458.13 839.73 467.26
  C 842.10 475.32 851.84 481.58 858.30 472.94
  Q 858.60 472.54 858.60 472.05
  Q 858.62 463.19 858.51 454.34
  C 858.46 450.36 857.66 447.30 854.71 444.94
  C 849.42 440.71 842.76 443.81 840.41 449.68
  Z"
/>
<path fill="#7d0100" d="
  M 128.84 426.59
  Q 128.72 448.67 128.76 470.75
  C 128.77 473.15 128.87 477.48 131.01 478.99
  C 132.94 480.35 134.98 479.69 137.07 480.11
  A 0.43 0.43 0.0 0 1 136.99 480.97
  L 112.95 481.08
  Q 112.57 481.08 112.58 480.70
  L 112.58 480.31
  A 0.40 0.40 0.0 0 1 113.04 479.92
  C 119.31 480.93 120.83 477.56 120.82 471.96
  Q 120.78 449.30 120.82 426.70
  Q 120.82 426.17 120.30 426.13
  C 112.86 425.50 102.81 424.60 102.31 435.24
  Q 102.27 435.99 101.53 436.05
  L 101.25 436.07
  Q 100.62 436.12 100.65 435.49
  L 101.34 423.56
  Q 101.38 423.00 101.94 423.00
  L 148.24 423.00
  Q 148.73 423.00 148.75 423.49
  L 149.37 435.47
  A 0.50 0.49 2.4 0 1 148.80 435.99
  L 148.47 435.94
  Q 147.76 435.83 147.73 435.11
  C 147.28 424.39 136.60 425.75 129.35 426.06
  Q 128.84 426.08 128.84 426.59
  Z"
/>
<path fill="#7d0100" d="
  M 607.67 454.08
  Q 607.63 464.30 607.87 474.50
  C 608.01 480.17 611.93 479.70 615.98 480.17
  Q 616.16 480.19 616.15 480.37
  L 616.14 480.63
  Q 616.12 480.99 615.76 480.99
  L 591.99 481.06
  A 0.42 0.41 -86.9 0 1 591.58 480.60
  L 591.60 480.35
  A 0.41 0.41 0.0 0 1 592.06 479.98
  Q 599.77 480.87 599.79 473.01
  Q 599.87 442.11 599.76 429.01
  C 599.73 424.59 595.55 423.68 592.03 423.97
  Q 591.62 424.00 591.59 423.59
  L 591.57 423.32
  Q 591.55 423.06 591.81 423.06
  Q 600.91 422.89 617.22 423.18
  C 625.77 423.33 634.52 428.10 635.70 437.08
  C 636.98 446.83 629.93 454.13 620.49 454.84
  Q 614.23 455.31 608.15 453.72
  Q 607.67 453.59 607.67 454.08
  Z
  M 607.53 428.30
  L 607.71 449.88
  A 2.19 2.19 0.0 0 0 609.92 452.05
  L 614.78 452.01
  A 12.40 11.75 89.5 0 0 626.42 439.51
  L 626.41 438.35
  A 12.40 11.75 89.5 0 0 614.56 426.05
  L 609.70 426.09
  A 2.19 2.19 0.0 0 0 607.53 428.30
  Z"
/>
<path fill="#7d0100" d="
  M 778.66 423.80
  C 770.81 424.15 769.30 425.31 769.26 432.93
  Q 769.15 453.09 769.28 473.25
  C 769.31 477.05 771.14 477.91 774.70 477.98
  C 786.74 478.21 796.58 479.87 801.11 465.75
  A 0.79 0.78 -74.5 0 1 802.04 465.22
  L 802.35 465.29
  A 0.40 0.40 0.0 0 1 802.64 465.80
  L 797.91 480.49
  A 0.72 0.71 9.0 0 1 797.23 480.98
  L 753.24 481.05
  A 0.49 0.49 0.0 0 1 753.17 480.08
  C 757.38 479.45 761.05 480.15 761.13 474.07
  Q 761.38 454.92 761.21 435.76
  C 761.15 428.89 762.04 423.16 753.28 424.04
  A 0.29 0.28 -13.9 0 1 752.99 423.87
  L 752.84 423.51
  Q 752.61 422.97 753.20 422.97
  L 778.65 423.01
  Q 778.77 423.01 778.82 423.12
  L 778.93 423.39
  Q 779.09 423.78 778.66 423.80
  Z"
/>
<path fill="#ffffff" d="
  M 607.53 428.30
  A 2.19 2.19 0.0 0 1 609.70 426.09
  L 614.56 426.05
  A 12.40 11.75 89.5 0 1 626.41 438.35
  L 626.42 439.51
  A 12.40 11.75 89.5 0 1 614.78 452.01
  L 609.92 452.05
  A 2.19 2.19 0.0 0 1 607.71 449.88
  L 607.53 428.30
  Z"
/>
<path fill="#7d0100" d="
  M 696.07 444.48
  Q 695.94 457.87 696.04 471.25
  C 696.06 473.81 696.32 476.41 699.33 476.94
  Q 702.82 477.54 704.93 474.16
  A 0.58 0.57 -59.5 0 1 705.70 473.96
  L 705.92 474.08
  Q 706.39 474.34 706.17 474.83
  C 702.40 483.34 689.80 485.64 689.30 473.52
  Q 688.71 459.12 689.14 444.72
  Q 689.16 444.05 688.49 444.05
  L 683.47 444.01
  A 0.73 0.73 0.0 0 1 683.12 442.65
  Q 691.65 437.79 694.82 428.51
  Q 695.13 427.59 695.86 428.22
  A 0.88 0.87 21.3 0 1 696.16 428.90
  L 696.00 440.48
  A 0.49 0.48 90.0 0 0 696.48 440.97
  L 704.52 441.00
  Q 705.29 441.00 705.28 441.77
  L 705.26 443.00
  Q 705.25 444.00 704.25 444.00
  L 696.54 444.02
  Q 696.08 444.02 696.07 444.48
  Z"
/>
<path fill="#7d0100" d="
  M 818.07 444.66
  Q 817.92 458.08 818.08 471.50
  Q 818.11 474.05 819.20 475.96
  A 1.51 1.49 -6.5 0 0 820.09 476.66
  Q 824.62 477.97 827.15 474.08
  A 0.46 0.46 0.0 0 1 827.75 473.93
  L 828.04 474.09
  A 0.46 0.46 0.0 0 1 828.25 474.69
  C 826.31 479.14 821.68 482.90 816.68 481.74
  C 811.46 480.53 811.25 474.96 811.17 469.75
  Q 810.97 457.19 811.04 444.64
  Q 811.04 444.06 810.46 444.05
  L 805.26 443.98
  A 0.65 0.64 -59.1 0 1 804.96 442.77
  Q 813.65 437.90 816.73 428.36
  A 0.71 0.70 54.3 0 1 818.10 428.59
  L 818.03 440.38
  Q 818.03 440.97 818.63 440.98
  L 826.52 441.01
  Q 827.27 441.02 827.26 441.77
  L 827.25 443.00
  Q 827.25 444.00 826.25 444.00
  L 818.74 444.01
  Q 818.08 444.01 818.07 444.66
  Z"
/>
<path fill="#b43437" d="
  M 369.44 436.58
  Q 370.09 442.53 369.33 448.36
  L 369.44 436.58
  Z"
/>
<path fill="#7d0100" d="
  M 160.24 457.52
  C 160.10 466.06 164.62 474.17 174.02 475.05
  Q 183.22 475.90 186.10 466.48
  A 0.54 0.53 19.7 0 1 186.82 466.14
  L 187.09 466.24
  A 0.46 0.45 16.1 0 1 187.36 466.72
  C 184.06 488.50 156.55 486.04 154.56 464.75
  Q 153.90 457.81 155.82 451.83
  C 161.29 434.72 188.06 436.38 187.23 456.54
  Q 187.21 457.00 186.75 457.00
  L 160.76 457.01
  A 0.52 0.52 0.0 0 0 160.24 457.52
  Z
  M 161.02 454.13
  L 178.34 453.95
  A 0.54 0.54 0.0 0 0 178.87 453.40
  L 178.87 453.27
  A 10.35 9.07 89.4 0 0 169.69 443.02
  L 169.43 443.02
  A 10.35 9.07 89.4 0 0 160.47 453.47
  L 160.47 453.60
  A 0.54 0.54 0.0 0 0 161.02 454.13
  Z"
/>
<path fill="#7d0100" d="
  M 200.87 459.38
  C 201.73 467.23 205.24 475.14 214.48 474.93
  C 221.65 474.76 223.04 470.80 225.91 465.43
  A 0.49 0.48 -28.3 0 1 226.82 465.70
  C 225.95 474.34 218.28 483.40 208.86 481.94
  C 193.46 479.55 190.39 458.07 198.20 447.39
  C 203.82 439.70 214.61 437.52 222.37 443.38
  C 224.53 445.00 226.73 448.16 225.57 450.86
  C 224.37 453.65 220.49 453.53 218.73 451.50
  Q 217.95 450.61 217.55 448.12
  Q 216.66 442.47 210.03 443.02
  C 202.59 443.64 200.21 453.29 200.87 459.38
  Z"
/>
<path fill="#7d0100" d="
  M 337.1986 482.0121
  A 21.09 18.83 94.6 0 1 320.1207 459.4799
  A 21.09 18.83 94.6 0 1 340.5814 439.9679
  A 21.09 18.83 94.6 0 1 357.6593 462.5001
  A 21.09 18.83 94.6 0 1 337.1986 482.0121
  Z
  M 328.32 452.50
  Q 326.01 463.71 332.07 474.01
  C 336.68 481.84 347.16 480.29 349.32 471.50
  C 350.96 464.79 350.46 453.03 345.49 446.90
  C 342.14 442.76 336.00 441.39 331.98 445.11
  Q 329.34 447.55 328.32 452.50
  Z"
/>
<path fill="#7d0100" d="
  M 405.1978 482.0220
  A 21.10 18.81 94.6 0 1 388.1406 459.4815
  A 21.10 18.81 94.6 0 1 408.5822 439.9580
  A 21.10 18.81 94.6 0 1 425.6394 462.4985
  A 21.10 18.81 94.6 0 1 405.1978 482.0220
  Z
  M 399.59 445.45
  C 393.01 452.20 395.60 466.72 399.78 473.98
  C 404.18 481.62 415.40 480.41 417.33 471.50
  C 418.99 463.87 418.60 446.89 408.80 443.58
  Q 403.25 441.70 399.59 445.45
  Z"
/>
<path fill="#7d0100" d="
  M 463.93 446.55
  C 467.27 452.53 466.64 459.36 461.42 464.02
  Q 454.78 469.93 444.87 467.17
  Q 444.37 467.03 443.98 467.37
  Q 441.74 469.33 441.05 472.25
  A 2.01 2.01 0.0 0 0 442.73 474.70
  Q 450.23 475.76 457.99 475.50
  Q 460.15 475.42 463.63 476.52
  C 470.98 478.85 472.25 486.68 467.18 492.23
  C 459.19 500.97 445.32 502.47 435.29 496.41
  C 429.02 492.63 432.45 488.75 435.95 484.59
  Q 437.51 482.73 439.33 481.05
  A 0.46 0.46 0.0 0 0 439.20 480.29
  C 431.30 476.95 437.60 470.22 441.96 466.96
  Q 442.51 466.56 441.92 466.21
  C 430.17 459.35 433.69 444.08 445.97 440.59
  Q 452.25 438.80 458.46 441.89
  C 461.96 443.63 466.40 443.05 470.27 442.97
  Q 471.64 442.93 471.70 444.30
  L 471.72 444.74
  Q 471.77 445.99 470.51 446.00
  L 464.25 446.01
  Q 463.63 446.01 463.93 446.55
  Z
  M 451.6749 466.2605
  A 12.28 8.34 83.9 0 0 458.6628 453.1638
  A 12.28 8.34 83.9 0 0 449.0651 441.8395
  A 12.28 8.34 83.9 0 0 442.0772 454.9362
  A 12.28 8.34 83.9 0 0 451.6749 466.2605
  Z
  M 460.80 493.83
  C 463.94 492.84 468.89 488.40 466.83 484.60
  Q 465.69 482.51 462.99 482.39
  Q 452.58 481.96 442.18 481.13
  Q 441.67 481.09 441.31 481.47
  C 436.19 486.90 436.30 491.73 443.93 493.94
  Q 452.51 496.43 460.80 493.83
  Z"
/>
<path fill="#7d0100" d="
  M 479.40 445.48
  L 475.07 445.83
  Q 474.90 445.84 474.85 445.67
  L 474.76 445.38
  A 0.52 0.51 71.2 0 1 475.06 444.76
  L 486.97 439.92
  A 0.92 0.92 0.0 0 1 488.24 440.78
  Q 488.09 457.94 488.24 475.52
  Q 488.28 480.32 493.85 480.14
  A 0.28 0.27 4.9 0 1 494.13 480.47
  L 494.08 480.74
  Q 494.03 480.99 493.78 480.99
  L 475.74 481.05
  Q 475.23 481.05 475.24 480.55
  L 475.25 480.30
  Q 475.25 480.12 475.44 480.12
  C 481.75 480.22 481.17 476.10 481.23 470.88
  Q 481.35 460.67 481.13 450.45
  Q 481.08 448.19 480.35 446.11
  A 0.94 0.93 -11.3 0 0 479.40 445.48
  Z"
/>
<path fill="#7d0100" d="
  M 505.25 457.52
  C 504.99 466.78 510.54 475.05 520.24 475.09
  Q 528.00 475.11 531.16 466.52
  A 0.61 0.61 0.0 0 1 532.33 466.81
  C 531.33 474.71 524.70 482.44 516.15 482.07
  C 497.03 481.25 494.15 452.50 507.39 443.24
  C 518.64 435.37 532.87 442.67 532.23 456.56
  Q 532.21 457.00 531.77 457.00
  L 505.78 457.01
  Q 505.27 457.01 505.25 457.52
  Z
  M 506.14 454.16
  L 523.20 453.96
  A 0.67 0.67 0.0 0 0 523.86 453.28
  L 523.86 453.16
  A 10.25 9.08 89.3 0 0 514.65 443.02
  L 514.41 443.02
  A 10.25 9.08 89.3 0 0 505.46 453.38
  L 505.46 453.50
  A 0.67 0.67 0.0 0 0 506.14 454.16
  Z"
/>
<path fill="#7d0100" d="
  M 562.09 441.47
  L 563.07 440.10
  A 0.54 0.54 0.0 0 1 564.05 440.41
  L 564.14 452.47
  A 0.61 0.61 0.0 0 1 562.96 452.67
  C 560.89 446.46 557.88 441.96 550.48 443.16
  C 545.24 444.01 543.46 449.60 547.54 453.14
  C 552.34 457.30 559.73 458.18 564.04 462.88
  C 568.68 467.94 567.52 475.48 561.96 479.35
  C 555.62 483.76 550.13 481.60 543.28 479.88
  A 0.65 0.64 23.2 0 0 542.57 480.16
  L 541.47 481.90
  A 0.47 0.47 0.0 0 1 540.61 481.65
  L 540.55 469.74
  A 0.66 0.66 0.0 0 1 541.84 469.56
  Q 544.76 479.57 555.52 478.97
  C 560.82 478.67 562.53 471.44 558.72 468.27
  C 552.26 462.87 537.63 460.95 540.83 448.47
  C 542.08 443.60 545.87 440.64 550.73 440.08
  C 553.84 439.71 557.25 441.04 560.38 442.04
  A 1.53 1.52 26.3 0 0 562.09 441.47
  Z"
/>
<path fill="#7d0100" d="
  M 663.01 469.74
  L 672.94 445.06
  A 2.09 2.09 0.0 0 0 671.24 442.20
  L 668.46 441.89
  Q 668.28 441.87 668.29 441.68
  L 668.30 441.41
  Q 668.33 440.98 668.76 440.98
  L 680.75 440.99
  A 0.42 0.42 0.0 0 1 680.81 441.82
  C 678.58 442.18 677.29 443.25 676.39 445.44
  Q 669.04 463.44 661.56 481.50
  A 0.87 0.86 -83.8 0 1 660.94 482.01
  Q 659.68 482.27 659.16 481.04
  Q 651.69 463.17 644.20 445.32
  Q 643.04 442.55 638.89 442.11
  A 0.28 0.28 0.0 0 1 638.64 441.81
  L 638.66 441.51
  Q 638.70 440.97 639.24 440.97
  L 656.90 441.01
  Q 657.06 441.01 657.08 441.17
  L 657.14 441.57
  Q 657.17 441.79 656.94 441.79
  C 651.84 441.71 651.79 444.76 653.33 448.53
  Q 657.69 459.17 662.30 469.75
  A 0.39 0.39 0.0 0 0 663.01 469.74
  Z"
/>
<ellipse fill="#ffffff" cx="0.00" cy="0.00" transform="translate(450.37,454.05) rotate(83.9)" rx="12.28" ry="8.34"/>
<path fill="#ffffff" d="
  M 161.02 454.13
  A 0.54 0.54 0.0 0 1 160.47 453.60
  L 160.47 453.47
  A 10.35 9.07 89.4 0 1 169.43 443.02
  L 169.69 443.02
  A 10.35 9.07 89.4 0 1 178.87 453.27
  L 178.87 453.40
  A 0.54 0.54 0.0 0 1 178.34 453.95
  L 161.02 454.13
  Z"
/>
<path fill="#ffffff" d="
  M 331.98 445.11
  C 336.00 441.39 342.14 442.76 345.49 446.90
  C 350.46 453.03 350.96 464.79 349.32 471.50
  C 347.16 480.29 336.68 481.84 332.07 474.01
  Q 326.01 463.71 328.32 452.50
  Q 329.34 447.55 331.98 445.11
  Z"
/>
<path fill="#ffffff" d="
  M 399.59 445.45
  Q 403.25 441.70 408.80 443.58
  C 418.60 446.89 418.99 463.87 417.33 471.50
  C 415.40 480.41 404.18 481.62 399.78 473.98
  C 395.60 466.72 393.01 452.20 399.59 445.45
  Z"
/>
<path fill="#ffffff" d="
  M 506.14 454.16
  A 0.67 0.67 0.0 0 1 505.46 453.50
  L 505.46 453.38
  A 10.25 9.08 89.3 0 1 514.41 443.02
  L 514.65 443.02
  A 10.25 9.08 89.3 0 1 523.86 453.16
  L 523.86 453.28
  A 0.67 0.67 0.0 0 1 523.20 453.96
  L 506.14 454.16
  Z"
/>
<path fill="#ffffff" d="
  M 840.41 449.68
  C 842.76 443.81 849.42 440.71 854.71 444.94
  C 857.66 447.30 858.46 450.36 858.51 454.34
  Q 858.62 463.19 858.60 472.05
  Q 858.60 472.54 858.30 472.94
  C 851.84 481.58 842.10 475.32 839.73 467.26
  Q 837.04 458.13 840.41 449.68
  Z"
/>
<ellipse fill="#7d0100" cx="0.00" cy="0.00" transform="translate(717.97,477.00) rotate(89.6)" rx="4.97" ry="4.66"/>
<ellipse fill="#7d0100" cx="0.00" cy="0.00" transform="translate(882.97,477.00) rotate(91.8)" rx="4.96" ry="4.64"/>
<path fill="#ffffff" d="
  M 460.80 493.83
  Q 452.51 496.43 443.93 493.94
  C 436.30 491.73 436.19 486.90 441.31 481.47
  Q 441.67 481.09 442.18 481.13
  Q 452.58 481.96 462.99 482.39
  Q 465.69 482.51 466.83 484.60
  C 468.89 488.40 463.94 492.84 460.80 493.83
  Z"
/>
</svg>
